<?xml version="1.0" standalone="no"?>
<!DOCTYPE svg PUBLIC "-//W3C//DTD SVG 20010904//EN"
 "http://www.w3.org/TR/2001/REC-SVG-20010904/DTD/svg10.dtd">
<svg version="1.0" xmlns="http://www.w3.org/2000/svg"
 width="777.000000pt" height="777.000000pt" viewBox="0 0 777.000000 777.000000"
 preserveAspectRatio="xMidYMid meet">
<metadata>
Created by potrace 1.11, written by Peter Selinger 2001-2013
</metadata>
<g transform="translate(0.000000,777.000000) scale(0.100000,-0.100000)"
fill="#000000" stroke="none">
<path d="M0 3885 l0 -3885 3885 0 3885 0 0 3885 0 3885 -3885 0 -3885 0 0
-3885z m3625 1560 c22 -3 70 -20 108 -37 l67 -31 23 -71 c18 -57 22 -93 21
-181 -2 -166 -40 -311 -133 -510 -184 -392 -472 -740 -1442 -1746 -347 -360
-590 -616 -700 -739 l-77 -85 -148 -32 c-82 -18 -165 -35 -185 -39 l-36 -6 34
194 c87 507 380 2522 368 2536 -2 2 -64 6 -137 9 -231 10 -355 -32 -489 -166
-139 -139 -196 -303 -186 -535 5 -117 13 -154 73 -337 4 -12 -37 -40 -178
-118 -102 -55 -189 -101 -195 -101 -6 0 -28 51 -49 113 -38 110 -38 115 -39
262 0 128 3 162 23 230 99 344 391 642 750 767 143 49 291 70 517 71 189 2
484 -17 514 -33 16 -8 -68 -69 -156 -114 -29 -14 -53 -30 -53 -34 0 -4 -74
-515 -165 -1136 -91 -621 -165 -1131 -165 -1134 0 -10 729 710 892 881 560
590 850 1047 914 1443 15 91 16 119 6 188 -15 100 -55 185 -116 246 -25 25
-46 50 -46 55 0 16 135 117 218 163 51 28 85 41 102 38 14 -3 43 -8 65 -11z
m3905 -245 l0 -90 -29 0 c-69 0 -117 -78 -194 -315 -107 -330 -221 -753 -411
-1526 -150 -611 -176 -733 -176 -832 0 -89 10 -120 53 -165 62 -65 153 -73
507 -45 l84 6 -32 -39 c-83 -101 -62 -91 -227 -114 -82 -11 -271 -41 -420 -65
-381 -63 -363 -61 -405 -33 -88 59 -88 123 4 433 101 339 522 1943 513 1951
-1 1 -35 -46 -76 -104 -41 -59 -154 -223 -253 -365 -489 -704 -801 -1193 -948
-1487 -49 -98 -50 -98 -167 -189 -65 -50 -120 -91 -123 -91 -4 0 -11 109 -18
243 -7 133 -28 404 -46 602 -71 757 -130 1364 -133 1361 -2 -2 -44 -156 -93
-342 -286 -1087 -343 -1261 -484 -1474 -167 -250 -372 -402 -626 -463 -127
-31 -404 -47 -503 -29 l-37 7 115 173 c109 163 118 173 143 168 15 -3 99 -10
187 -17 266 -19 385 9 490 115 96 97 138 191 262 591 123 399 423 1508 411
1520 -2 2 -37 8 -78 14 -528 72 -875 -64 -939 -367 -33 -157 2 -325 122 -593
l25 -55 -186 -130 c-102 -71 -189 -130 -193 -132 -9 -4 -63 126 -89 218 -28
97 -37 267 -20 363 25 145 116 344 227 500 74 102 275 312 362 376 85 63 190
115 283 141 152 42 409 48 678 14 43 -6 48 -4 120 54 41 33 78 57 81 54 23
-24 171 -1243 239 -1962 12 -124 23 -226 24 -227 4 -4 19 19 356 507 354 514
1041 1476 1137 1591 70 85 164 161 293 236 47 28 105 62 130 76 25 14 48 26
53 27 4 0 7 -40 7 -90z"/>
</g>
</svg>
