<?xml version="1.0" encoding="UTF-8" standalone="no"?>
<svg
   width="388.12805"
   zoomAndPan="magnify"
   viewBox="0 0 291.09604 80.558588"
   height="107.41145"
   preserveAspectRatio="xMidYMid"
   version="1.0"
   id="svg49"
   sodipodi:docname="vic_logo_5.svg"
   inkscape:version="1.3.2 (091e20e, 2023-11-25)"
   xmlns:inkscape="http://www.inkscape.org/namespaces/inkscape"
   xmlns:sodipodi="http://sodipodi.sourceforge.net/DTD/sodipodi-0.dtd"
   xmlns="http://www.w3.org/2000/svg"
   xmlns:svg="http://www.w3.org/2000/svg">
  <sodipodi:namedview
     id="namedview49"
     pagecolor="#ffffff"
     bordercolor="#000000"
     borderopacity="0.25"
     inkscape:showpageshadow="2"
     inkscape:pageopacity="0.0"
     inkscape:pagecheckerboard="0"
     inkscape:deskcolor="#d1d1d1"
     inkscape:zoom="0.472"
     inkscape:cx="250"
     inkscape:cy="250"
     inkscape:window-width="1584"
     inkscape:window-height="861"
     inkscape:window-x="0"
     inkscape:window-y="25"
     inkscape:window-maximized="0"
     inkscape:current-layer="svg49" />
  <defs
     id="defs5">
    <clipPath
       id="056855b205">
      <path
         d="M 37.550781,187.00781 H 84.9375 v 40.63672 H 37.550781 Z m 0,0"
         clip-rule="nonzero"
         id="path1" />
    </clipPath>
    <clipPath
       id="a172523e61">
      <path
         d="m 61,147.08594 h 70.88672 v 80.55859 H 61 Z m 0,0"
         clip-rule="nonzero"
         id="path2" />
    </clipPath>
    <clipPath
       id="73481a1948">
      <path
         d="m 108.19531,147.08594 h 70.81641 v 80.55859 h -70.81641 z m 0,0"
         clip-rule="nonzero"
         id="path3" />
    </clipPath>
  </defs>
  <g
     id="g50"
     transform="translate(-37.550782,-147.08594)">
    <g
       clip-path="url(#056855b205)"
       id="g6">
      <path
         fill="#86c7ed"
         d="m 72.917969,187.05469 h -23.5625 L 37.550781,207.5 49.355469,227.90234 h 23.5625 L 84.71875,207.5 72.917969,187.05469"
         fill-opacity="1"
         fill-rule="nonzero"
         id="path6" />
    </g>
    <g
       clip-path="url(#a172523e61)"
       id="g7">
      <path
         fill="#a066cb"
         d="m 124.42578,194.60156 h 0.004 l -0.79688,-1.3789 -3.54687,-6.16797 h -0.0195 l -15.86719,-27.46875 -0.004,0.004 -7.718748,-13.34375 H 72.917969 L 61.113281,166.65234 69.054688,180.38281 88.5,214.0625 96.476562,227.90234 H 120.08594 L 131.84375,207.5 124.42578,194.60156"
         fill-opacity="1"
         fill-rule="nonzero"
         id="path7" />
    </g>
    <g
       clip-path="url(#73481a1948)"
       id="g8">
      <path
         fill="#1836b2"
         d="m 170.99219,193.60937 0.0352,-0.0195 -20.18359,-35.01172 -0.0469,0.0273 -7.14843,-12.35938 h -23.5625 l -11.80469,20.40625 11.80469,20.40235 h 0.008 l 11.78516,20.38672 -0.0352,0.0586 11.80469,20.40234 h 23.5625 L 179.01172,207.5 170.99219,193.60937"
         fill-opacity="1"
         fill-rule="nonzero"
         id="path8" />
    </g>
    <g
       fill="#000000"
       fill-opacity="1"
       id="g11">
      <g
         transform="translate(186.395,180.59554)"
         id="g10">
        <g
           id="g9">
          <path
             d="M 21.1875,-24.796875 14.625,0 H 6.203125 l -6.875,-24.796875 H 6.28125 l 4.234375,19.984375 3.9375,-19.984375 z m 0,0"
             id="path9" />
        </g>
      </g>
    </g>
    <g
       fill="#000000"
       fill-opacity="1"
       id="g14">
      <g
         transform="translate(206.89958,180.59554)"
         id="g13">
        <g
           id="g12">
          <path
             d="M 8.203125,-19.015625 V 0 H 1.859375 V -19.015625 Z M 5.03125,-29.25 c 1.0625,0 1.929688,0.335938 2.609375,1 0.6875,0.667969 1.03125,1.5 1.03125,2.5 0,1 -0.34375,1.835938 -1.03125,2.5 -0.679687,0.65625 -1.546875,0.984375 -2.609375,0.984375 -1.074219,0 -1.949219,-0.328125 -2.625,-0.984375 -0.679688,-0.664062 -1.015625,-1.5 -1.015625,-2.5 0,-1 0.335937,-1.832031 1.015625,-2.5 0.675781,-0.664062 1.550781,-1 2.625,-1 z m 0,0"
             id="path11" />
        </g>
      </g>
    </g>
    <g
       fill="#000000"
       fill-opacity="1"
       id="g17">
      <g
         transform="translate(216.95575,180.59554)"
         id="g16">
        <g
           id="g15">
          <path
             d="m 10.453125,-19.65625 c 1.375,0 2.609375,0.203125 3.703125,0.609375 1.09375,0.40625 2.09375,1.011719 3,1.8125 l -2.671875,3.71875 c -1.09375,-0.882813 -2.25,-1.328125 -3.46875,-1.328125 -1.15625,0 -2.039063,0.421875 -2.640625,1.265625 -0.59375,0.84375 -0.890625,2.246094 -0.890625,4.203125 0,1.898438 0.296875,3.21875 0.890625,3.96875 0.601562,0.75 1.460938,1.125 2.578125,1.125 0.59375,0 1.140625,-0.09375 1.640625,-0.28125 0.5,-0.1875 1.101562,-0.507812 1.8125,-0.96875 l 2.75,3.890625 c -1.835938,1.523437 -4.011719,2.28125 -6.53125,2.28125 -1.992188,0 -3.71875,-0.417969 -5.1875,-1.25 C 3.976562,-1.441406 2.851562,-2.613281 2.0625,-4.125 1.28125,-5.632812 0.890625,-7.375 0.890625,-9.34375 c 0,-2 0.390625,-3.773438 1.171875,-5.328125 0.789062,-1.5625 1.90625,-2.78125 3.34375,-3.65625 1.4375,-0.882813 3.117188,-1.328125 5.046875,-1.328125 z m 0,0"
             id="path14" />
        </g>
      </g>
    </g>
    <g
       fill="#000000"
       fill-opacity="1"
       id="g20">
      <g
         transform="translate(234.03696,180.59554)"
         id="g19">
        <g
           id="g18">
          <path
             d="M 14.484375,-0.921875 C 13.742188,-0.398438 12.882812,-0.0078125 11.90625,0.25 10.9375,0.507812 9.988281,0.640625 9.0625,0.640625 c -4.398438,0 -6.59375,-2.425781 -6.59375,-7.28125 V -14.65625 H 0 v -4.359375 h 2.46875 v -4.03125 l 6.34375,-0.75 v 4.78125 h 4.3125 l -0.640625,4.359375 H 8.8125 v 7.953125 c 0,0.855469 0.132812,1.460937 0.40625,1.8125 0.269531,0.355469 0.679688,0.53125 1.234375,0.53125 0.664063,0 1.304687,-0.175781 1.921875,-0.53125 z m 0,0"
             id="path17" />
        </g>
      </g>
    </g>
    <g
       fill="#000000"
       fill-opacity="1"
       id="g23">
      <g
         transform="translate(248.05139,180.59554)"
         id="g22">
        <g
           id="g21">
          <path
             d="m 10.421875,-19.65625 c 2.96875,0 5.296875,0.898438 6.984375,2.6875 1.6875,1.78125 2.53125,4.277344 2.53125,7.484375 0,2.042969 -0.382812,3.824219 -1.140625,5.34375 -0.761719,1.523437 -1.859375,2.699219 -3.296875,3.53125 -1.4375,0.832031 -3.132812,1.25 -5.078125,1.25 -2.980469,0 -5.3125,-0.890625 -7,-2.671875 -1.6875,-1.78125 -2.53125,-4.28125 -2.53125,-7.5 0,-2.039062 0.378906,-3.820312 1.140625,-5.34375 0.757812,-1.519531 1.859375,-2.695312 3.296875,-3.53125 1.4375,-0.832031 3.132813,-1.25 5.09375,-1.25 z m 0,4.609375 c -1.03125,0 -1.792969,0.449219 -2.28125,1.34375 -0.480469,0.886719 -0.71875,2.277344 -0.71875,4.171875 0,1.980469 0.238281,3.40625 0.71875,4.28125 0.488281,0.867188 1.25,1.296875 2.28125,1.296875 1.019531,0 1.769531,-0.445313 2.25,-1.34375 0.488281,-0.894531 0.734375,-2.289063 0.734375,-4.1875 0,-1.945313 -0.246094,-3.359375 -0.734375,-4.234375 -0.480469,-0.882812 -1.230469,-1.328125 -2.25,-1.328125 z m 0,0"
             id="path20" />
        </g>
      </g>
    </g>
    <g
       fill="#000000"
       fill-opacity="1"
       id="g26">
      <g
         transform="translate(268.87691,180.59554)"
         id="g25">
        <g
           id="g24">
          <path
             d="m 12.765625,-19.578125 c 0.625,0 1.269531,0.105469 1.9375,0.3125 L 13.65625,-13.125 c -0.617188,-0.1875 -1.183594,-0.28125 -1.703125,-0.28125 -1.074219,0 -1.890625,0.367188 -2.453125,1.09375 -0.554688,0.71875 -0.984375,1.8125 -1.296875,3.28125 V 0 h -6.34375 v -19.015625 h 5.53125 l 0.5625,3.609375 c 0.382813,-1.257812 1.019531,-2.269531 1.90625,-3.03125 0.894531,-0.757812 1.863281,-1.140625 2.90625,-1.140625 z m 0,0"
             id="path23" />
        </g>
      </g>
    </g>
    <g
       fill="#000000"
       fill-opacity="1"
       id="g29">
      <g
         transform="translate(186.395,218.09553)"
         id="g28">
        <g
           id="g27">
          <path
             d="m 27.28125,0 h -6.484375 l -0.328125,-9.234375 -0.03125,-1.53125 c -0.04297,-1.425781 -0.0625,-2.507813 -0.0625,-3.25 0,-1.78125 0.06641,-3.566406 0.203125,-5.359375 L 17.1875,-2.5625 H 10.953125 L 7.34375,-19.375 c 0.21875,2.78125 0.328125,5.234375 0.328125,7.359375 0,1.210937 -0.011719,2.136719 -0.03125,2.78125 L 7.34375,0 H 0.859375 l 1.8125,-24.796875 H 10.875 L 14.203125,-8.34375 17.1875,-24.796875 h 8.25 z m 0,0"
             id="path26" />
        </g>
      </g>
    </g>
    <g
       fill="#000000"
       fill-opacity="1"
       id="g32">
      <g
         transform="translate(214.53086,218.09553)"
         id="g31">
        <g
           id="g30">
          <path
             d="M 8.203125,-19.015625 V 0 H 1.859375 V -19.015625 Z M 5.03125,-29.25 c 1.0625,0 1.929688,0.335938 2.609375,1 0.6875,0.667969 1.03125,1.5 1.03125,2.5 0,1 -0.34375,1.835938 -1.03125,2.5 -0.679687,0.65625 -1.546875,0.984375 -2.609375,0.984375 -1.074219,0 -1.949219,-0.328125 -2.625,-0.984375 -0.679688,-0.664062 -1.015625,-1.5 -1.015625,-2.5 0,-1 0.335937,-1.832031 1.015625,-2.5 0.675781,-0.664062 1.550781,-1 2.625,-1 z m 0,0"
             id="path29" />
        </g>
      </g>
    </g>
    <g
       fill="#000000"
       fill-opacity="1"
       id="g35">
      <g
         transform="translate(224.58702,218.09553)"
         id="g34">
        <g
           id="g33">
          <path
             d="M 14.484375,-0.921875 C 13.742188,-0.398438 12.882812,-0.0078125 11.90625,0.25 10.9375,0.507812 9.988281,0.640625 9.0625,0.640625 c -4.398438,0 -6.59375,-2.425781 -6.59375,-7.28125 V -14.65625 H 0 v -4.359375 h 2.46875 v -4.03125 l 6.34375,-0.75 v 4.78125 h 4.3125 l -0.640625,4.359375 H 8.8125 v 7.953125 c 0,0.855469 0.132812,1.460937 0.40625,1.8125 0.269531,0.355469 0.679688,0.53125 1.234375,0.53125 0.664063,0 1.304687,-0.175781 1.921875,-0.53125 z m 0,0"
             id="path32" />
        </g>
      </g>
    </g>
    <g
       fill="#000000"
       fill-opacity="1"
       id="g38">
      <g
         transform="translate(238.60146,218.09553)"
         id="g37">
        <g
           id="g36">
          <path
             d="m 13.625,-19.65625 c 1.613281,0 2.882812,0.507812 3.8125,1.515625 0.925781,1.011719 1.390625,2.40625 1.390625,4.1875 V 0 h -6.34375 v -12.8125 c 0,-0.832031 -0.125,-1.40625 -0.375,-1.71875 -0.25,-0.320312 -0.617187,-0.484375 -1.09375,-0.484375 -0.96875,0 -1.90625,0.726563 -2.8125,2.171875 V 0 h -6.34375 v -26.5 l 6.34375,-0.640625 v 9.984375 c 0.78125,-0.851562 1.609375,-1.484375 2.484375,-1.890625 0.882812,-0.40625 1.863281,-0.609375 2.9375,-0.609375 z m 0,0"
             id="path35" />
        </g>
      </g>
    </g>
    <g
       fill="#000000"
       fill-opacity="1"
       id="g41">
      <g
         transform="translate(259.10604,218.09553)"
         id="g40">
        <g
           id="g39">
          <path
             d="m 17.625,-5.84375 c 0,0.6875 0.08594,1.199219 0.265625,1.53125 0.175781,0.335938 0.488281,0.585938 0.9375,0.75 l -1.28125,4.09375 C 16.335938,0.4375 15.34375,0.1875 14.5625,-0.21875 13.789062,-0.625 13.171875,-1.265625 12.703125,-2.140625 c -1.21875,1.855469 -3.136719,2.78125 -5.75,2.78125 -1.875,0 -3.382813,-0.5546875 -4.515625,-1.65625 C 1.3125,-2.117188 0.75,-3.550781 0.75,-5.3125 c 0,-2.09375 0.769531,-3.695312 2.3125,-4.8125 1.550781,-1.125 3.789062,-1.6875 6.71875,-1.6875 h 1.640625 v -0.640625 c 0,-1.019531 -0.21875,-1.710937 -0.65625,-2.078125 -0.429687,-0.375 -1.199219,-0.5625 -2.3125,-0.5625 -0.59375,0 -1.339844,0.09375 -2.234375,0.28125 -0.886719,0.179688 -1.792969,0.417969 -2.71875,0.71875 L 2.109375,-18.1875 c 1.132813,-0.476562 2.351563,-0.84375 3.65625,-1.09375 1.3125,-0.25 2.53125,-0.375 3.65625,-0.375 2.851563,0 4.929687,0.570312 6.234375,1.703125 1.3125,1.125 1.96875,2.855469 1.96875,5.1875 z m -8.75,2.03125 c 0.53125,0 1.015625,-0.132812 1.453125,-0.40625 0.4375,-0.28125 0.800781,-0.65625 1.09375,-1.125 V -8.421875 H 10.34375 c -1.148438,0 -1.996094,0.210937 -2.546875,0.625 -0.542969,0.417969 -0.8125,1.042969 -0.8125,1.875 0,0.648437 0.164063,1.164063 0.5,1.546875 C 7.816406,-4 8.28125,-3.8125 8.875,-3.8125 Z m 0,0"
             id="path38" />
        </g>
      </g>
    </g>
    <g
       fill="#000000"
       fill-opacity="1"
       id="g44">
      <g
         transform="translate(278.71912,218.09553)"
         id="g43">
        <g
           id="g42">
          <path
             d="m 23.40625,-19.65625 c 1.46875,0 2.65625,0.507812 3.5625,1.515625 0.90625,1.011719 1.359375,2.40625 1.359375,4.1875 V 0 H 21.96875 v -12.8125 c 0,-1.46875 -0.429688,-2.203125 -1.28125,-2.203125 -0.875,0 -1.683594,0.726563 -2.421875,2.171875 V 0 h -6.34375 v -12.8125 c 0,-1.46875 -0.433594,-2.203125 -1.296875,-2.203125 -0.875,0 -1.683594,0.726563 -2.421875,2.171875 V 0 h -6.34375 v -19.015625 h 5.53125 l 0.453125,2.109375 c 0.738281,-0.925781 1.550781,-1.613281 2.4375,-2.0625 0.894531,-0.457031 1.925781,-0.6875 3.09375,-0.6875 1,0 1.878906,0.246094 2.640625,0.734375 0.757813,0.492187 1.332031,1.199219 1.71875,2.125 0.78125,-0.976563 1.625,-1.695313 2.53125,-2.15625 0.90625,-0.46875 1.953125,-0.703125 3.140625,-0.703125 z m 0,0"
             id="path41" />
        </g>
      </g>
    </g>
    <g
       fill="#000000"
       fill-opacity="1"
       id="g47">
      <g
         transform="translate(308.7093,218.09553)"
         id="g46">
        <g
           id="g45">
          <path
             d="m 10.421875,-19.65625 c 2.96875,0 5.296875,0.898438 6.984375,2.6875 1.6875,1.78125 2.53125,4.277344 2.53125,7.484375 0,2.042969 -0.382812,3.824219 -1.140625,5.34375 -0.761719,1.523437 -1.859375,2.699219 -3.296875,3.53125 -1.4375,0.832031 -3.132812,1.25 -5.078125,1.25 -2.980469,0 -5.3125,-0.890625 -7,-2.671875 -1.6875,-1.78125 -2.53125,-4.28125 -2.53125,-7.5 0,-2.039062 0.378906,-3.820312 1.140625,-5.34375 0.757812,-1.519531 1.859375,-2.695312 3.296875,-3.53125 1.4375,-0.832031 3.132813,-1.25 5.09375,-1.25 z m 0,4.609375 c -1.03125,0 -1.792969,0.449219 -2.28125,1.34375 -0.480469,0.886719 -0.71875,2.277344 -0.71875,4.171875 0,1.980469 0.238281,3.40625 0.71875,4.28125 0.488281,0.867188 1.25,1.296875 2.28125,1.296875 1.019531,0 1.769531,-0.445313 2.25,-1.34375 0.488281,-0.894531 0.734375,-2.289063 0.734375,-4.1875 0,-1.945313 -0.246094,-3.359375 -0.734375,-4.234375 -0.480469,-0.882812 -1.230469,-1.328125 -2.25,-1.328125 z m 0,0"
             id="path44" />
        </g>
      </g>
    </g>
  </g>
</svg>
