<svg xmlns="http://www.w3.org/2000/svg" xmlns:xlink="http://www.w3.org/1999/xlink" width="500" zoomAndPan="magnify" viewBox="0 0 375 374.999991" height="500" preserveAspectRatio="xMidYMid meet" version="1.0"><defs><g/><clipPath id="8547d8b382"><path d="M 67.160156 120.472656 L 145.769531 120.472656 L 145.769531 187.910156 L 67.160156 187.910156 Z M 67.160156 120.472656 " clip-rule="nonzero"/></clipPath><clipPath id="5337e549db"><path d="M 106 54.238281 L 223.65625 54.238281 L 223.65625 187.910156 L 106 187.910156 Z M 106 54.238281 " clip-rule="nonzero"/></clipPath><clipPath id="9c29cf3f72"><path d="M 184.347656 54.238281 L 301.472656 54.238281 L 301.472656 187.910156 L 184.347656 187.910156 Z M 184.347656 54.238281 " clip-rule="nonzero"/></clipPath><clipPath id="ec21b45d01"><path d="M 358.660156 314.605469 L 363.527344 314.605469 L 363.527344 319.472656 L 358.660156 319.472656 Z M 358.660156 314.605469 " clip-rule="nonzero"/></clipPath><clipPath id="06fec83842"><path d="M 361.09375 316.292969 C 361.339844 316.292969 361.484375 316.433594 361.484375 316.660156 C 361.484375 316.890625 361.347656 317.023438 361.105469 317.023438 L 360.636719 317.023438 L 360.636719 316.292969 Z M 360.398438 316.082031 L 360.398438 317.988281 L 360.636719 317.988281 L 360.636719 317.234375 L 361.105469 317.234375 L 361.511719 317.988281 L 361.792969 317.988281 L 361.355469 317.199219 C 361.589844 317.125 361.734375 316.917969 361.734375 316.652344 C 361.734375 316.3125 361.496094 316.089844 361.125 316.089844 Z M 361.09375 314.816406 C 362.320312 314.816406 363.3125 315.808594 363.3125 317.039062 C 363.3125 318.269531 362.320312 319.257812 361.09375 319.257812 C 359.871094 319.257812 358.871094 318.265625 358.871094 317.039062 C 358.871094 315.8125 359.863281 314.816406 361.09375 314.816406 Z M 361.09375 314.605469 C 359.753906 314.605469 358.664062 315.6875 358.660156 317.023438 L 358.660156 317.050781 C 358.664062 318.386719 359.753906 319.46875 361.09375 319.46875 C 362.4375 319.46875 363.523438 318.378906 363.523438 317.039062 C 363.523438 315.699219 362.4375 314.605469 361.09375 314.605469 Z M 361.09375 314.605469 " clip-rule="nonzero"/></clipPath></defs><rect x="-37.5" width="450" fill="#ffffff" y="-37.499999" height="449.999989" fill-opacity="1"/><rect x="-37.5" width="450" fill="#ffffff" y="-37.499999" height="449.999989" fill-opacity="1"/><g clip-path="url(#8547d8b382)"><path fill="#86c7ed" d="M 125.828125 120.542969 L 86.742188 120.542969 L 67.160156 154.460938 L 86.742188 188.308594 L 125.828125 188.308594 L 145.40625 154.460938 L 125.828125 120.542969 " fill-opacity="1" fill-rule="nonzero"/></g><g clip-path="url(#5337e549db)"><path fill="#a066cb" d="M 211.277344 133.066406 L 211.28125 133.0625 L 209.960938 130.78125 L 204.078125 120.542969 L 204.046875 120.542969 L 177.722656 74.976562 L 177.71875 74.984375 L 164.914062 52.851562 L 125.828125 52.851562 L 106.246094 86.699219 L 119.425781 109.480469 L 119.421875 109.480469 L 151.679688 165.347656 L 164.914062 188.308594 L 204.078125 188.308594 L 223.582031 154.460938 L 211.277344 133.066406 " fill-opacity="1" fill-rule="nonzero"/></g><g clip-path="url(#9c29cf3f72)"><path fill="#1836b2" d="M 288.527344 131.421875 L 288.582031 131.390625 L 255.097656 73.304688 L 255.023438 73.351562 L 243.164062 52.851562 L 204.078125 52.851562 L 184.496094 86.699219 L 204.078125 120.542969 L 204.085938 120.542969 L 223.640625 154.363281 L 223.582031 154.460938 L 243.164062 188.308594 L 282.25 188.308594 L 301.828125 154.460938 L 288.527344 131.421875 " fill-opacity="1" fill-rule="nonzero"/></g><g fill="#000000" fill-opacity="1"><g transform="translate(116.658999, 244.752141)"><g><path d="M 31.140625 -36.4375 L 21.5 0 L 9.125 0 L -1 -36.4375 L 9.234375 -36.4375 L 15.46875 -7.078125 L 21.234375 -36.4375 Z M 31.140625 -36.4375 "/></g></g></g><g fill="#000000" fill-opacity="1"><g transform="translate(146.802223, 244.752141)"><g><path d="M 12.0625 -27.953125 L 12.0625 0 L 2.734375 0 L 2.734375 -27.953125 Z M 7.390625 -43 C 8.960938 -43 10.242188 -42.507812 11.234375 -41.53125 C 12.234375 -40.550781 12.734375 -39.328125 12.734375 -37.859375 C 12.734375 -36.390625 12.234375 -35.164062 11.234375 -34.1875 C 10.242188 -33.207031 8.960938 -32.71875 7.390625 -32.71875 C 5.816406 -32.71875 4.53125 -33.207031 3.53125 -34.1875 C 2.539062 -35.164062 2.046875 -36.390625 2.046875 -37.859375 C 2.046875 -39.328125 2.539062 -40.550781 3.53125 -41.53125 C 4.53125 -42.507812 5.816406 -43 7.390625 -43 Z M 7.390625 -43 "/></g></g></g><g fill="#000000" fill-opacity="1"><g transform="translate(161.585506, 244.752141)"><g><path d="M 15.359375 -28.890625 C 17.390625 -28.890625 19.207031 -28.59375 20.8125 -28 C 22.425781 -27.40625 23.894531 -26.515625 25.21875 -25.328125 L 21.296875 -19.875 C 19.679688 -21.164062 17.984375 -21.8125 16.203125 -21.8125 C 14.492188 -21.8125 13.203125 -21.191406 12.328125 -19.953125 C 11.453125 -18.710938 11.015625 -16.660156 11.015625 -13.796875 C 11.015625 -10.992188 11.453125 -9.039062 12.328125 -7.9375 C 13.203125 -6.84375 14.457031 -6.296875 16.09375 -6.296875 C 16.96875 -6.296875 17.769531 -6.429688 18.5 -6.703125 C 19.238281 -6.984375 20.132812 -7.457031 21.1875 -8.125 L 25.21875 -2.40625 C 22.53125 -0.175781 19.332031 0.9375 15.625 0.9375 C 12.6875 0.9375 10.140625 0.328125 7.984375 -0.890625 C 5.835938 -2.117188 4.1875 -3.84375 3.03125 -6.0625 C 1.882812 -8.28125 1.3125 -10.835938 1.3125 -13.734375 C 1.3125 -16.671875 1.882812 -19.285156 3.03125 -21.578125 C 4.1875 -23.867188 5.820312 -25.660156 7.9375 -26.953125 C 10.050781 -28.242188 12.523438 -28.890625 15.359375 -28.890625 Z M 15.359375 -28.890625 "/></g></g></g><g fill="#000000" fill-opacity="1"><g transform="translate(186.696127, 244.752141)"><g><path d="M 21.296875 -1.359375 C 20.210938 -0.585938 18.953125 -0.015625 17.515625 0.359375 C 16.078125 0.742188 14.675781 0.9375 13.3125 0.9375 C 6.851562 0.9375 3.625 -2.625 3.625 -9.75 L 3.625 -21.546875 L 0 -21.546875 L 0 -27.953125 L 3.625 -27.953125 L 3.625 -33.875 L 12.953125 -34.96875 L 12.953125 -27.953125 L 19.296875 -27.953125 L 18.359375 -21.546875 L 12.953125 -21.546875 L 12.953125 -9.859375 C 12.953125 -8.597656 13.148438 -7.703125 13.546875 -7.171875 C 13.953125 -6.648438 14.554688 -6.390625 15.359375 -6.390625 C 16.335938 -6.390625 17.285156 -6.65625 18.203125 -7.1875 Z M 21.296875 -1.359375 "/></g></g></g><g fill="#000000" fill-opacity="1"><g transform="translate(207.298369, 244.752141)"><g><path d="M 15.3125 -28.890625 C 19.675781 -28.890625 23.097656 -27.578125 25.578125 -24.953125 C 28.066406 -22.335938 29.3125 -18.671875 29.3125 -13.953125 C 29.3125 -10.941406 28.75 -8.316406 27.625 -6.078125 C 26.507812 -3.847656 24.894531 -2.117188 22.78125 -0.890625 C 20.664062 0.328125 18.175781 0.9375 15.3125 0.9375 C 10.9375 0.9375 7.507812 -0.367188 5.03125 -2.984375 C 2.550781 -5.609375 1.3125 -9.28125 1.3125 -14 C 1.3125 -17.007812 1.867188 -19.628906 2.984375 -21.859375 C 4.109375 -24.097656 5.726562 -25.828125 7.84375 -27.046875 C 9.957031 -28.273438 12.445312 -28.890625 15.3125 -28.890625 Z M 15.3125 -22.125 C 13.8125 -22.125 12.703125 -21.46875 11.984375 -20.15625 C 11.265625 -18.851562 10.90625 -16.800781 10.90625 -14 C 10.90625 -11.101562 11.265625 -9.015625 11.984375 -7.734375 C 12.703125 -6.460938 13.8125 -5.828125 15.3125 -5.828125 C 16.8125 -5.828125 17.921875 -6.476562 18.640625 -7.78125 C 19.359375 -9.09375 19.71875 -11.148438 19.71875 -13.953125 C 19.71875 -16.816406 19.359375 -18.894531 18.640625 -20.1875 C 17.921875 -21.476562 16.8125 -22.125 15.3125 -22.125 Z M 15.3125 -22.125 "/></g></g></g><g fill="#000000" fill-opacity="1"><g transform="translate(237.913403, 244.752141)"><g><path d="M 18.765625 -28.78125 C 19.679688 -28.78125 20.628906 -28.625 21.609375 -28.3125 L 20.078125 -19.296875 C 19.171875 -19.578125 18.332031 -19.71875 17.5625 -19.71875 C 15.988281 -19.71875 14.789062 -19.179688 13.96875 -18.109375 C 13.15625 -17.046875 12.519531 -15.429688 12.0625 -13.265625 L 12.0625 0 L 2.734375 0 L 2.734375 -27.953125 L 10.859375 -27.953125 L 11.6875 -22.65625 C 12.25 -24.507812 13.1875 -25.992188 14.5 -27.109375 C 15.8125 -28.222656 17.234375 -28.78125 18.765625 -28.78125 Z M 18.765625 -28.78125 "/></g></g></g><g fill="#000000" fill-opacity="1"><g transform="translate(82.690227, 300.744624)"><g><path d="M 40.109375 0 L 30.578125 0 L 30.09375 -13.578125 L 30.046875 -15.84375 C 29.972656 -17.9375 29.9375 -19.523438 29.9375 -20.609375 C 29.9375 -23.234375 30.039062 -25.851562 30.25 -28.46875 L 25.28125 -3.78125 L 16.09375 -3.78125 L 10.796875 -28.46875 C 11.117188 -24.382812 11.28125 -20.785156 11.28125 -17.671875 C 11.28125 -15.890625 11.257812 -14.523438 11.21875 -13.578125 L 10.796875 0 L 1.265625 0 L 3.9375 -36.4375 L 16 -36.4375 L 20.875 -12.265625 L 25.28125 -36.4375 L 37.390625 -36.4375 Z M 40.109375 0 "/></g></g></g><g fill="#000000" fill-opacity="1"><g transform="translate(124.051974, 300.744624)"><g><path d="M 12.0625 -27.953125 L 12.0625 0 L 2.734375 0 L 2.734375 -27.953125 Z M 7.390625 -43 C 8.960938 -43 10.242188 -42.507812 11.234375 -41.53125 C 12.234375 -40.550781 12.734375 -39.328125 12.734375 -37.859375 C 12.734375 -36.390625 12.234375 -35.164062 11.234375 -34.1875 C 10.242188 -33.207031 8.960938 -32.71875 7.390625 -32.71875 C 5.816406 -32.71875 4.53125 -33.207031 3.53125 -34.1875 C 2.539062 -35.164062 2.046875 -36.390625 2.046875 -37.859375 C 2.046875 -39.328125 2.539062 -40.550781 3.53125 -41.53125 C 4.53125 -42.507812 5.816406 -43 7.390625 -43 Z M 7.390625 -43 "/></g></g></g><g fill="#000000" fill-opacity="1"><g transform="translate(138.835256, 300.744624)"><g><path d="M 21.296875 -1.359375 C 20.210938 -0.585938 18.953125 -0.015625 17.515625 0.359375 C 16.078125 0.742188 14.675781 0.9375 13.3125 0.9375 C 6.851562 0.9375 3.625 -2.625 3.625 -9.75 L 3.625 -21.546875 L 0 -21.546875 L 0 -27.953125 L 3.625 -27.953125 L 3.625 -33.875 L 12.953125 -34.96875 L 12.953125 -27.953125 L 19.296875 -27.953125 L 18.359375 -21.546875 L 12.953125 -21.546875 L 12.953125 -9.859375 C 12.953125 -8.597656 13.148438 -7.703125 13.546875 -7.171875 C 13.953125 -6.648438 14.554688 -6.390625 15.359375 -6.390625 C 16.335938 -6.390625 17.285156 -6.65625 18.203125 -7.1875 Z M 21.296875 -1.359375 "/></g></g></g><g fill="#000000" fill-opacity="1"><g transform="translate(159.437498, 300.744624)"><g><path d="M 20.03125 -28.890625 C 22.40625 -28.890625 24.273438 -28.144531 25.640625 -26.65625 C 27.003906 -25.175781 27.6875 -23.125 27.6875 -20.5 L 27.6875 0 L 18.359375 0 L 18.359375 -18.828125 C 18.359375 -20.046875 18.171875 -20.890625 17.796875 -21.359375 C 17.429688 -21.835938 16.898438 -22.078125 16.203125 -22.078125 C 14.765625 -22.078125 13.382812 -21.007812 12.0625 -18.875 L 12.0625 0 L 2.734375 0 L 2.734375 -38.96875 L 12.0625 -39.90625 L 12.0625 -25.21875 C 13.21875 -26.476562 14.441406 -27.40625 15.734375 -28 C 17.023438 -28.59375 18.457031 -28.890625 20.03125 -28.890625 Z M 20.03125 -28.890625 "/></g></g></g><g fill="#000000" fill-opacity="1"><g transform="translate(189.580722, 300.744624)"><g><path d="M 25.90625 -8.59375 C 25.90625 -7.582031 26.035156 -6.832031 26.296875 -6.34375 C 26.554688 -5.851562 27.019531 -5.488281 27.6875 -5.25 L 25.796875 0.78125 C 24.015625 0.644531 22.554688 0.28125 21.421875 -0.3125 C 20.285156 -0.90625 19.367188 -1.847656 18.671875 -3.140625 C 16.890625 -0.421875 14.070312 0.9375 10.21875 0.9375 C 7.457031 0.9375 5.242188 0.125 3.578125 -1.5 C 1.921875 -3.125 1.09375 -5.226562 1.09375 -7.8125 C 1.09375 -10.882812 2.226562 -13.242188 4.5 -14.890625 C 6.78125 -16.535156 10.070312 -17.359375 14.375 -17.359375 L 16.78125 -17.359375 L 16.78125 -18.296875 C 16.78125 -19.804688 16.460938 -20.832031 15.828125 -21.375 C 15.203125 -21.914062 14.066406 -22.1875 12.421875 -22.1875 C 11.546875 -22.1875 10.453125 -22.050781 9.140625 -21.78125 C 7.835938 -21.519531 6.503906 -21.164062 5.140625 -20.71875 L 3.09375 -26.75 C 4.769531 -27.445312 6.566406 -27.976562 8.484375 -28.34375 C 10.410156 -28.707031 12.195312 -28.890625 13.84375 -28.890625 C 18.039062 -28.890625 21.097656 -28.054688 23.015625 -26.390625 C 24.941406 -24.734375 25.90625 -22.191406 25.90625 -18.765625 Z M 13.0625 -5.609375 C 13.820312 -5.609375 14.523438 -5.804688 15.171875 -6.203125 C 15.828125 -6.609375 16.363281 -7.160156 16.78125 -7.859375 L 16.78125 -12.375 L 15.203125 -12.375 C 13.523438 -12.375 12.285156 -12.066406 11.484375 -11.453125 C 10.679688 -10.847656 10.28125 -9.929688 10.28125 -8.703125 C 10.28125 -7.753906 10.523438 -7 11.015625 -6.4375 C 11.503906 -5.882812 12.1875 -5.609375 13.0625 -5.609375 Z M 13.0625 -5.609375 "/></g></g></g><g fill="#000000" fill-opacity="1"><g transform="translate(218.413376, 300.744624)"><g><path d="M 34.40625 -28.890625 C 36.570312 -28.890625 38.316406 -28.144531 39.640625 -26.65625 C 40.972656 -25.175781 41.640625 -23.125 41.640625 -20.5 L 41.640625 0 L 32.296875 0 L 32.296875 -18.828125 C 32.296875 -20.992188 31.664062 -22.078125 30.40625 -22.078125 C 29.113281 -22.078125 27.925781 -21.007812 26.84375 -18.875 L 26.84375 0 L 17.515625 0 L 17.515625 -18.828125 C 17.515625 -20.992188 16.882812 -22.078125 15.625 -22.078125 C 14.332031 -22.078125 13.144531 -21.007812 12.0625 -18.875 L 12.0625 0 L 2.734375 0 L 2.734375 -27.953125 L 10.859375 -27.953125 L 11.53125 -24.859375 C 12.613281 -26.222656 13.8125 -27.234375 15.125 -27.890625 C 16.4375 -28.554688 17.953125 -28.890625 19.671875 -28.890625 C 21.128906 -28.890625 22.414062 -28.53125 23.53125 -27.8125 C 24.65625 -27.101562 25.5 -26.066406 26.0625 -24.703125 C 27.21875 -26.128906 28.457031 -27.179688 29.78125 -27.859375 C 31.113281 -28.546875 32.65625 -28.890625 34.40625 -28.890625 Z M 34.40625 -28.890625 "/></g></g></g><g fill="#000000" fill-opacity="1"><g transform="translate(262.501123, 300.744624)"><g><path d="M 15.3125 -28.890625 C 19.675781 -28.890625 23.097656 -27.578125 25.578125 -24.953125 C 28.066406 -22.335938 29.3125 -18.671875 29.3125 -13.953125 C 29.3125 -10.941406 28.75 -8.316406 27.625 -6.078125 C 26.507812 -3.847656 24.894531 -2.117188 22.78125 -0.890625 C 20.664062 0.328125 18.175781 0.9375 15.3125 0.9375 C 10.9375 0.9375 7.507812 -0.367188 5.03125 -2.984375 C 2.550781 -5.609375 1.3125 -9.28125 1.3125 -14 C 1.3125 -17.007812 1.867188 -19.628906 2.984375 -21.859375 C 4.109375 -24.097656 5.726562 -25.828125 7.84375 -27.046875 C 9.957031 -28.273438 12.445312 -28.890625 15.3125 -28.890625 Z M 15.3125 -22.125 C 13.8125 -22.125 12.703125 -21.46875 11.984375 -20.15625 C 11.265625 -18.851562 10.90625 -16.800781 10.90625 -14 C 10.90625 -11.101562 11.265625 -9.015625 11.984375 -7.734375 C 12.703125 -6.460938 13.8125 -5.828125 15.3125 -5.828125 C 16.8125 -5.828125 17.921875 -6.476562 18.640625 -7.78125 C 19.359375 -9.09375 19.71875 -11.148438 19.71875 -13.953125 C 19.71875 -16.816406 19.359375 -18.894531 18.640625 -20.1875 C 17.921875 -21.476562 16.8125 -22.125 15.3125 -22.125 Z M 15.3125 -22.125 "/></g></g></g><g clip-path="url(#ec21b45d01)"><g clip-path="url(#06fec83842)"><path fill="#000000" d="M 358.660156 314.605469 L 363.527344 314.605469 L 363.527344 319.472656 L 358.660156 319.472656 Z M 358.660156 314.605469 " fill-opacity="1" fill-rule="nonzero"/></g></g></svg>