<svg xmlns="http://www.w3.org/2000/svg" xmlns:xlink="http://www.w3.org/1999/xlink" width="500" zoomAndPan="magnify" viewBox="0 0 375 374.999991" height="500" preserveAspectRatio="xMidYMid meet" version="1.0"><defs><g/><clipPath id="056855b205"><path d="M 37.550781 187.007812 L 84.9375 187.007812 L 84.9375 227.644531 L 37.550781 227.644531 Z M 37.550781 187.007812 " clip-rule="nonzero"/></clipPath><clipPath id="a172523e61"><path d="M 61 147.085938 L 131.886719 147.085938 L 131.886719 227.644531 L 61 227.644531 Z M 61 147.085938 " clip-rule="nonzero"/></clipPath><clipPath id="73481a1948"><path d="M 108.195312 147.085938 L 179.011719 147.085938 L 179.011719 227.644531 L 108.195312 227.644531 Z M 108.195312 147.085938 " clip-rule="nonzero"/></clipPath><clipPath id="b628fcdb57"><path d="M 358.660156 314.605469 L 363.527344 314.605469 L 363.527344 319.472656 L 358.660156 319.472656 Z M 358.660156 314.605469 " clip-rule="nonzero"/></clipPath><clipPath id="45f03156ce"><path d="M 361.09375 316.292969 C 361.339844 316.292969 361.484375 316.433594 361.484375 316.660156 C 361.484375 316.890625 361.347656 317.023438 361.105469 317.023438 L 360.636719 317.023438 L 360.636719 316.292969 Z M 360.398438 316.082031 L 360.398438 317.988281 L 360.636719 317.988281 L 360.636719 317.234375 L 361.105469 317.234375 L 361.511719 317.988281 L 361.792969 317.988281 L 361.355469 317.199219 C 361.589844 317.125 361.734375 316.917969 361.734375 316.652344 C 361.734375 316.3125 361.496094 316.089844 361.125 316.089844 Z M 361.09375 314.816406 C 362.320312 314.816406 363.3125 315.808594 363.3125 317.039062 C 363.3125 318.269531 362.320312 319.257812 361.09375 319.257812 C 359.871094 319.257812 358.871094 318.265625 358.871094 317.039062 C 358.871094 315.8125 359.863281 314.816406 361.09375 314.816406 Z M 361.09375 314.605469 C 359.753906 314.605469 358.664062 315.6875 358.660156 317.023438 L 358.660156 317.050781 C 358.664062 318.386719 359.753906 319.46875 361.09375 319.46875 C 362.4375 319.46875 363.523438 318.378906 363.523438 317.039062 C 363.523438 315.699219 362.4375 314.605469 361.09375 314.605469 Z M 361.09375 314.605469 " clip-rule="nonzero"/></clipPath></defs><rect x="-37.5" width="450" fill="#ffffff" y="-37.499999" height="449.999989" fill-opacity="1"/><rect x="-37.5" width="450" fill="#ffffff" y="-37.499999" height="449.999989" fill-opacity="1"/><g clip-path="url(#056855b205)"><path fill="#86c7ed" d="M 72.917969 187.054688 L 49.355469 187.054688 L 37.550781 207.5 L 49.355469 227.902344 L 72.917969 227.902344 L 84.71875 207.5 L 72.917969 187.054688 " fill-opacity="1" fill-rule="nonzero"/></g><g clip-path="url(#a172523e61)"><path fill="#a066cb" d="M 124.425781 194.601562 L 124.429688 194.601562 L 123.632812 193.222656 L 120.085938 187.054688 L 120.066406 187.054688 L 104.199219 159.585938 L 104.195312 159.589844 L 96.476562 146.246094 L 72.917969 146.246094 L 61.113281 166.652344 L 69.054688 180.382812 L 88.5 214.0625 L 96.476562 227.902344 L 120.085938 227.902344 L 131.84375 207.5 L 124.425781 194.601562 " fill-opacity="1" fill-rule="nonzero"/></g><g clip-path="url(#73481a1948)"><path fill="#1836b2" d="M 170.992188 193.609375 L 171.027344 193.589844 L 150.84375 158.578125 L 150.796875 158.605469 L 143.648438 146.246094 L 120.085938 146.246094 L 108.28125 166.652344 L 120.085938 187.054688 L 120.09375 187.054688 L 131.878906 207.441406 L 131.84375 207.5 L 143.648438 227.902344 L 167.210938 227.902344 L 179.011719 207.5 L 170.992188 193.609375 " fill-opacity="1" fill-rule="nonzero"/></g><g fill="#000000" fill-opacity="1"><g transform="translate(186.395001, 180.595536)"><g><path d="M 21.1875 -24.796875 L 14.625 0 L 6.203125 0 L -0.671875 -24.796875 L 6.28125 -24.796875 L 10.515625 -4.8125 L 14.453125 -24.796875 Z M 21.1875 -24.796875 "/></g></g></g><g fill="#000000" fill-opacity="1"><g transform="translate(206.899585, 180.595536)"><g><path d="M 8.203125 -19.015625 L 8.203125 0 L 1.859375 0 L 1.859375 -19.015625 Z M 5.03125 -29.25 C 6.09375 -29.25 6.960938 -28.914062 7.640625 -28.25 C 8.328125 -27.582031 8.671875 -26.75 8.671875 -25.75 C 8.671875 -24.75 8.328125 -23.914062 7.640625 -23.25 C 6.960938 -22.59375 6.09375 -22.265625 5.03125 -22.265625 C 3.957031 -22.265625 3.082031 -22.59375 2.40625 -23.25 C 1.726562 -23.914062 1.390625 -24.75 1.390625 -25.75 C 1.390625 -26.75 1.726562 -27.582031 2.40625 -28.25 C 3.082031 -28.914062 3.957031 -29.25 5.03125 -29.25 Z M 5.03125 -29.25 "/></g></g></g><g fill="#000000" fill-opacity="1"><g transform="translate(216.955748, 180.595536)"><g><path d="M 10.453125 -19.65625 C 11.828125 -19.65625 13.0625 -19.453125 14.15625 -19.046875 C 15.25 -18.640625 16.25 -18.035156 17.15625 -17.234375 L 14.484375 -13.515625 C 13.390625 -14.398438 12.234375 -14.84375 11.015625 -14.84375 C 9.859375 -14.84375 8.976562 -14.421875 8.375 -13.578125 C 7.78125 -12.734375 7.484375 -11.332031 7.484375 -9.375 C 7.484375 -7.476562 7.78125 -6.15625 8.375 -5.40625 C 8.976562 -4.65625 9.835938 -4.28125 10.953125 -4.28125 C 11.546875 -4.28125 12.09375 -4.375 12.59375 -4.5625 C 13.09375 -4.75 13.695312 -5.070312 14.40625 -5.53125 L 17.15625 -1.640625 C 15.320312 -0.117188 13.144531 0.640625 10.625 0.640625 C 8.632812 0.640625 6.90625 0.222656 5.4375 -0.609375 C 3.976562 -1.441406 2.851562 -2.613281 2.0625 -4.125 C 1.28125 -5.632812 0.890625 -7.375 0.890625 -9.34375 C 0.890625 -11.34375 1.28125 -13.117188 2.0625 -14.671875 C 2.851562 -16.234375 3.96875 -17.453125 5.40625 -18.328125 C 6.84375 -19.210938 8.523438 -19.65625 10.453125 -19.65625 Z M 10.453125 -19.65625 "/></g></g></g><g fill="#000000" fill-opacity="1"><g transform="translate(234.036958, 180.595536)"><g><path d="M 14.484375 -0.921875 C 13.742188 -0.398438 12.882812 -0.0078125 11.90625 0.25 C 10.9375 0.507812 9.988281 0.640625 9.0625 0.640625 C 4.664062 0.640625 2.46875 -1.785156 2.46875 -6.640625 L 2.46875 -14.65625 L 0 -14.65625 L 0 -19.015625 L 2.46875 -19.015625 L 2.46875 -23.046875 L 8.8125 -23.796875 L 8.8125 -19.015625 L 13.125 -19.015625 L 12.484375 -14.65625 L 8.8125 -14.65625 L 8.8125 -6.703125 C 8.8125 -5.847656 8.945312 -5.242188 9.21875 -4.890625 C 9.488281 -4.535156 9.898438 -4.359375 10.453125 -4.359375 C 11.117188 -4.359375 11.757812 -4.535156 12.375 -4.890625 Z M 14.484375 -0.921875 "/></g></g></g><g fill="#000000" fill-opacity="1"><g transform="translate(248.051392, 180.595536)"><g><path d="M 10.421875 -19.65625 C 13.390625 -19.65625 15.71875 -18.757812 17.40625 -16.96875 C 19.09375 -15.1875 19.9375 -12.691406 19.9375 -9.484375 C 19.9375 -7.441406 19.554688 -5.660156 18.796875 -4.140625 C 18.035156 -2.617188 16.9375 -1.441406 15.5 -0.609375 C 14.0625 0.222656 12.367188 0.640625 10.421875 0.640625 C 7.441406 0.640625 5.109375 -0.25 3.421875 -2.03125 C 1.734375 -3.8125 0.890625 -6.3125 0.890625 -9.53125 C 0.890625 -11.570312 1.269531 -13.351562 2.03125 -14.875 C 2.789062 -16.394531 3.890625 -17.570312 5.328125 -18.40625 C 6.765625 -19.238281 8.460938 -19.65625 10.421875 -19.65625 Z M 10.421875 -15.046875 C 9.390625 -15.046875 8.628906 -14.597656 8.140625 -13.703125 C 7.660156 -12.816406 7.421875 -11.425781 7.421875 -9.53125 C 7.421875 -7.550781 7.660156 -6.125 8.140625 -5.25 C 8.628906 -4.382812 9.390625 -3.953125 10.421875 -3.953125 C 11.441406 -3.953125 12.191406 -4.398438 12.671875 -5.296875 C 13.160156 -6.191406 13.40625 -7.585938 13.40625 -9.484375 C 13.40625 -11.429688 13.160156 -12.84375 12.671875 -13.71875 C 12.191406 -14.601562 11.441406 -15.046875 10.421875 -15.046875 Z M 10.421875 -15.046875 "/></g></g></g><g fill="#000000" fill-opacity="1"><g transform="translate(268.876914, 180.595536)"><g><path d="M 12.765625 -19.578125 C 13.390625 -19.578125 14.035156 -19.472656 14.703125 -19.265625 L 13.65625 -13.125 C 13.039062 -13.3125 12.472656 -13.40625 11.953125 -13.40625 C 10.878906 -13.40625 10.0625 -13.039062 9.5 -12.3125 C 8.945312 -11.59375 8.515625 -10.5 8.203125 -9.03125 L 8.203125 0 L 1.859375 0 L 1.859375 -19.015625 L 7.390625 -19.015625 L 7.953125 -15.40625 C 8.335938 -16.664062 8.972656 -17.675781 9.859375 -18.4375 C 10.753906 -19.195312 11.722656 -19.578125 12.765625 -19.578125 Z M 12.765625 -19.578125 "/></g></g></g><g fill="#000000" fill-opacity="1"><g transform="translate(186.395001, 218.095534)"><g><path d="M 27.28125 0 L 20.796875 0 L 20.46875 -9.234375 L 20.4375 -10.765625 C 20.394531 -12.191406 20.375 -13.273438 20.375 -14.015625 C 20.375 -15.796875 20.441406 -17.582031 20.578125 -19.375 L 17.1875 -2.5625 L 10.953125 -2.5625 L 7.34375 -19.375 C 7.5625 -16.59375 7.671875 -14.140625 7.671875 -12.015625 C 7.671875 -10.804688 7.660156 -9.878906 7.640625 -9.234375 L 7.34375 0 L 0.859375 0 L 2.671875 -24.796875 L 10.875 -24.796875 L 14.203125 -8.34375 L 17.1875 -24.796875 L 25.4375 -24.796875 Z M 27.28125 0 "/></g></g></g><g fill="#000000" fill-opacity="1"><g transform="translate(214.53086, 218.095534)"><g><path d="M 8.203125 -19.015625 L 8.203125 0 L 1.859375 0 L 1.859375 -19.015625 Z M 5.03125 -29.25 C 6.09375 -29.25 6.960938 -28.914062 7.640625 -28.25 C 8.328125 -27.582031 8.671875 -26.75 8.671875 -25.75 C 8.671875 -24.75 8.328125 -23.914062 7.640625 -23.25 C 6.960938 -22.59375 6.09375 -22.265625 5.03125 -22.265625 C 3.957031 -22.265625 3.082031 -22.59375 2.40625 -23.25 C 1.726562 -23.914062 1.390625 -24.75 1.390625 -25.75 C 1.390625 -26.75 1.726562 -27.582031 2.40625 -28.25 C 3.082031 -28.914062 3.957031 -29.25 5.03125 -29.25 Z M 5.03125 -29.25 "/></g></g></g><g fill="#000000" fill-opacity="1"><g transform="translate(224.587023, 218.095534)"><g><path d="M 14.484375 -0.921875 C 13.742188 -0.398438 12.882812 -0.0078125 11.90625 0.25 C 10.9375 0.507812 9.988281 0.640625 9.0625 0.640625 C 4.664062 0.640625 2.46875 -1.785156 2.46875 -6.640625 L 2.46875 -14.65625 L 0 -14.65625 L 0 -19.015625 L 2.46875 -19.015625 L 2.46875 -23.046875 L 8.8125 -23.796875 L 8.8125 -19.015625 L 13.125 -19.015625 L 12.484375 -14.65625 L 8.8125 -14.65625 L 8.8125 -6.703125 C 8.8125 -5.847656 8.945312 -5.242188 9.21875 -4.890625 C 9.488281 -4.535156 9.898438 -4.359375 10.453125 -4.359375 C 11.117188 -4.359375 11.757812 -4.535156 12.375 -4.890625 Z M 14.484375 -0.921875 "/></g></g></g><g fill="#000000" fill-opacity="1"><g transform="translate(238.601457, 218.095534)"><g><path d="M 13.625 -19.65625 C 15.238281 -19.65625 16.507812 -19.148438 17.4375 -18.140625 C 18.363281 -17.128906 18.828125 -15.734375 18.828125 -13.953125 L 18.828125 0 L 12.484375 0 L 12.484375 -12.8125 C 12.484375 -13.644531 12.359375 -14.21875 12.109375 -14.53125 C 11.859375 -14.851562 11.492188 -15.015625 11.015625 -15.015625 C 10.046875 -15.015625 9.109375 -14.289062 8.203125 -12.84375 L 8.203125 0 L 1.859375 0 L 1.859375 -26.5 L 8.203125 -27.140625 L 8.203125 -17.15625 C 8.984375 -18.007812 9.8125 -18.640625 10.6875 -19.046875 C 11.570312 -19.453125 12.550781 -19.65625 13.625 -19.65625 Z M 13.625 -19.65625 "/></g></g></g><g fill="#000000" fill-opacity="1"><g transform="translate(259.106041, 218.095534)"><g><path d="M 17.625 -5.84375 C 17.625 -5.15625 17.710938 -4.644531 17.890625 -4.3125 C 18.066406 -3.976562 18.378906 -3.726562 18.828125 -3.5625 L 17.546875 0.53125 C 16.335938 0.4375 15.34375 0.1875 14.5625 -0.21875 C 13.789062 -0.625 13.171875 -1.265625 12.703125 -2.140625 C 11.484375 -0.285156 9.566406 0.640625 6.953125 0.640625 C 5.078125 0.640625 3.570312 0.0859375 2.4375 -1.015625 C 1.3125 -2.117188 0.75 -3.550781 0.75 -5.3125 C 0.75 -7.40625 1.519531 -9.007812 3.0625 -10.125 C 4.613281 -11.25 6.851562 -11.8125 9.78125 -11.8125 L 11.421875 -11.8125 L 11.421875 -12.453125 C 11.421875 -13.472656 11.203125 -14.164062 10.765625 -14.53125 C 10.335938 -14.90625 9.566406 -15.09375 8.453125 -15.09375 C 7.859375 -15.09375 7.113281 -15 6.21875 -14.8125 C 5.332031 -14.632812 4.425781 -14.394531 3.5 -14.09375 L 2.109375 -18.1875 C 3.242188 -18.664062 4.460938 -19.03125 5.765625 -19.28125 C 7.078125 -19.53125 8.296875 -19.65625 9.421875 -19.65625 C 12.273438 -19.65625 14.351562 -19.085938 15.65625 -17.953125 C 16.96875 -16.828125 17.625 -15.097656 17.625 -12.765625 Z M 8.875 -3.8125 C 9.40625 -3.8125 9.890625 -3.945312 10.328125 -4.21875 C 10.765625 -4.5 11.128906 -4.875 11.421875 -5.34375 L 11.421875 -8.421875 L 10.34375 -8.421875 C 9.195312 -8.421875 8.347656 -8.210938 7.796875 -7.796875 C 7.253906 -7.378906 6.984375 -6.753906 6.984375 -5.921875 C 6.984375 -5.273438 7.148438 -4.757812 7.484375 -4.375 C 7.816406 -4 8.28125 -3.8125 8.875 -3.8125 Z M 8.875 -3.8125 "/></g></g></g><g fill="#000000" fill-opacity="1"><g transform="translate(278.719119, 218.095534)"><g><path d="M 23.40625 -19.65625 C 24.875 -19.65625 26.0625 -19.148438 26.96875 -18.140625 C 27.875 -17.128906 28.328125 -15.734375 28.328125 -13.953125 L 28.328125 0 L 21.96875 0 L 21.96875 -12.8125 C 21.96875 -14.28125 21.539062 -15.015625 20.6875 -15.015625 C 19.8125 -15.015625 19.003906 -14.289062 18.265625 -12.84375 L 18.265625 0 L 11.921875 0 L 11.921875 -12.8125 C 11.921875 -14.28125 11.488281 -15.015625 10.625 -15.015625 C 9.75 -15.015625 8.941406 -14.289062 8.203125 -12.84375 L 8.203125 0 L 1.859375 0 L 1.859375 -19.015625 L 7.390625 -19.015625 L 7.84375 -16.90625 C 8.582031 -17.832031 9.394531 -18.519531 10.28125 -18.96875 C 11.175781 -19.425781 12.207031 -19.65625 13.375 -19.65625 C 14.375 -19.65625 15.253906 -19.410156 16.015625 -18.921875 C 16.773438 -18.429688 17.347656 -17.722656 17.734375 -16.796875 C 18.515625 -17.773438 19.359375 -18.492188 20.265625 -18.953125 C 21.171875 -19.421875 22.21875 -19.65625 23.40625 -19.65625 Z M 23.40625 -19.65625 "/></g></g></g><g fill="#000000" fill-opacity="1"><g transform="translate(308.709298, 218.095534)"><g><path d="M 10.421875 -19.65625 C 13.390625 -19.65625 15.71875 -18.757812 17.40625 -16.96875 C 19.09375 -15.1875 19.9375 -12.691406 19.9375 -9.484375 C 19.9375 -7.441406 19.554688 -5.660156 18.796875 -4.140625 C 18.035156 -2.617188 16.9375 -1.441406 15.5 -0.609375 C 14.0625 0.222656 12.367188 0.640625 10.421875 0.640625 C 7.441406 0.640625 5.109375 -0.25 3.421875 -2.03125 C 1.734375 -3.8125 0.890625 -6.3125 0.890625 -9.53125 C 0.890625 -11.570312 1.269531 -13.351562 2.03125 -14.875 C 2.789062 -16.394531 3.890625 -17.570312 5.328125 -18.40625 C 6.765625 -19.238281 8.460938 -19.65625 10.421875 -19.65625 Z M 10.421875 -15.046875 C 9.390625 -15.046875 8.628906 -14.597656 8.140625 -13.703125 C 7.660156 -12.816406 7.421875 -11.425781 7.421875 -9.53125 C 7.421875 -7.550781 7.660156 -6.125 8.140625 -5.25 C 8.628906 -4.382812 9.390625 -3.953125 10.421875 -3.953125 C 11.441406 -3.953125 12.191406 -4.398438 12.671875 -5.296875 C 13.160156 -6.191406 13.40625 -7.585938 13.40625 -9.484375 C 13.40625 -11.429688 13.160156 -12.84375 12.671875 -13.71875 C 12.191406 -14.601562 11.441406 -15.046875 10.421875 -15.046875 Z M 10.421875 -15.046875 "/></g></g></g><g clip-path="url(#b628fcdb57)"><g clip-path="url(#45f03156ce)"><path fill="#000000" d="M 358.660156 314.605469 L 363.527344 314.605469 L 363.527344 319.472656 L 358.660156 319.472656 Z M 358.660156 314.605469 " fill-opacity="1" fill-rule="nonzero"/></g></g></svg>