<svg xmlns="http://www.w3.org/2000/svg" xmlns:xlink="http://www.w3.org/1999/xlink" width="500" zoomAndPan="magnify" viewBox="0 0 375 374.999991" height="500" preserveAspectRatio="xMidYMid meet" version="1.0"><rect x="-37.5" width="450" fill="#ffffff" y="-37.499999" height="449.999989" fill-opacity="1"/><rect x="-37.5" width="450" fill="#ffffff" y="-37.499999" height="449.999989" fill-opacity="1"/><path fill="#9f66ca" d="M 150.011719 74.277344 C 151.703125 74.140625 153.386719 74.175781 155.078125 74.230469 C 155.9375 74.253906 156.796875 74.253906 157.65625 74.257812 C 159.285156 74.269531 160.90625 74.300781 162.53125 74.335938 C 164.382812 74.378906 166.234375 74.398438 168.085938 74.417969 C 171.890625 74.457031 175.695312 74.519531 179.5 74.601562 L 187.195312 87.933594 L 188 89.328125 C 188.625 90.417969 189.253906 91.507812 189.878906 92.59375 L 190.542969 93.75 C 190.820312 94.230469 191.097656 94.710938 191.375 95.195312 C 192.074219 96.40625 192.785156 97.605469 193.535156 98.785156 C 194.511719 97.378906 195.378906 95.921875 196.21875 94.433594 C 196.519531 93.898438 196.824219 93.367188 197.125 92.835938 C 197.28125 92.5625 197.4375 92.285156 197.59375 92.011719 C 198.363281 90.65625 199.140625 89.308594 199.917969 87.960938 L 200.320312 87.269531 L 201.121094 85.878906 C 201.53125 85.171875 201.941406 84.460938 202.347656 83.75 C 203.675781 81.445312 205.007812 79.144531 206.355469 76.855469 L 206.71875 76.238281 L 207.050781 75.679688 L 207.339844 75.1875 C 207.570312 74.816406 207.570312 74.816406 207.785156 74.601562 C 208.179688 74.574219 208.570312 74.5625 208.964844 74.558594 L 209.738281 74.542969 L 210.597656 74.53125 C 210.898438 74.527344 211.195312 74.523438 211.496094 74.519531 C 214.234375 74.476562 216.96875 74.457031 219.707031 74.4375 C 221.730469 74.425781 223.753906 74.402344 225.777344 74.367188 C 227.199219 74.34375 228.621094 74.332031 230.042969 74.328125 C 230.894531 74.328125 231.742188 74.316406 232.59375 74.296875 C 233.394531 74.28125 234.191406 74.273438 234.992188 74.28125 C 235.425781 74.28125 235.855469 74.265625 236.289062 74.25 C 237.097656 74.261719 237.691406 74.304688 238.445312 74.601562 C 239.222656 75.460938 239.675781 76.363281 240.175781 77.410156 C 240.425781 77.847656 240.679688 78.28125 240.9375 78.714844 C 241.191406 79.15625 241.445312 79.597656 241.699219 80.039062 L 242.546875 81.511719 L 242.980469 82.265625 C 243.683594 83.496094 244.390625 84.722656 245.101562 85.949219 L 245.511719 86.667969 C 246.246094 87.9375 246.984375 89.207031 247.730469 90.472656 C 249.046875 92.699219 250.335938 94.945312 251.628906 97.1875 C 252.308594 98.367188 252.988281 99.546875 253.667969 100.726562 L 254.480469 102.132812 C 255.015625 103.0625 255.554688 103.992188 256.089844 104.921875 C 257.5625 107.472656 259.027344 110.023438 260.488281 112.582031 C 261.480469 114.324219 262.480469 116.058594 263.492188 117.785156 C 264.730469 119.894531 265.945312 122.015625 267.15625 124.140625 C 268.132812 125.851562 269.117188 127.5625 270.105469 129.269531 C 271.160156 131.089844 272.199219 132.921875 273.222656 134.761719 C 274.445312 136.953125 275.699219 139.121094 276.964844 141.285156 C 277.8125 142.730469 278.648438 144.175781 279.484375 145.625 L 279.890625 146.328125 C 280.140625 146.761719 280.390625 147.195312 280.636719 147.632812 C 280.859375 148.019531 281.09375 148.402344 281.332031 148.777344 L 281.644531 149.28125 L 281.921875 149.710938 L 282.0625 150.171875 C 281.847656 151.078125 281.460938 151.828125 280.992188 152.625 L 280.605469 153.292969 L 280.1875 154.003906 C 280.039062 154.253906 279.894531 154.503906 279.75 154.753906 C 279.449219 155.273438 279.144531 155.792969 278.84375 156.3125 C 278.148438 157.5 277.460938 158.695312 276.773438 159.890625 L 275.960938 161.292969 L 275.558594 161.996094 L 274.34375 164.097656 L 273.9375 164.800781 L 273.132812 166.195312 C 272.503906 167.285156 271.878906 168.371094 271.25 169.460938 L 270.589844 170.617188 C 270.3125 171.097656 270.035156 171.578125 269.757812 172.0625 L 269.375 172.722656 L 269.042969 173.300781 C 268.921875 173.507812 268.800781 173.710938 268.675781 173.921875 L 268.503906 174.351562 C 268.253906 174.886719 268.023438 175.242188 267.597656 175.652344 C 266.660156 175.933594 265.738281 175.921875 264.765625 175.929688 C 264.476562 175.9375 264.183594 175.945312 263.894531 175.957031 C 263.105469 175.976562 262.316406 175.988281 261.527344 175.996094 C 261.03125 176.003906 260.535156 176.007812 260.042969 176.015625 C 258.492188 176.039062 256.941406 176.058594 255.390625 176.0625 C 253.609375 176.070312 251.828125 176.101562 250.042969 176.152344 C 248.664062 176.1875 247.28125 176.207031 245.898438 176.207031 C 245.074219 176.210938 244.253906 176.222656 243.429688 176.25 C 239.289062 176.398438 239.289062 176.398438 237.582031 175.652344 C 236.203125 174.410156 235.480469 172.765625 234.804688 171.070312 C 234.492188 170.304688 234.105469 169.636719 233.671875 168.933594 C 233.433594 168.519531 233.191406 168.105469 232.953125 167.6875 L 231.730469 165.5625 C 231.054688 164.390625 230.378906 163.21875 229.703125 162.046875 C 228.328125 159.667969 226.957031 157.289062 225.585938 154.910156 L 225.21875 154.277344 C 224.953125 153.816406 224.683594 153.359375 224.414062 152.902344 L 223.996094 152.195312 L 223.609375 151.554688 C 223.332031 151.035156 223.332031 151.035156 223.332031 150.605469 C 222.734375 151.140625 222.382812 151.730469 221.988281 152.425781 L 221.574219 153.152344 L 221.132812 153.9375 L 220.671875 154.753906 C 220.347656 155.320312 220.027344 155.886719 219.707031 156.453125 C 218.972656 157.753906 218.230469 159.050781 217.488281 160.347656 L 217.058594 161.105469 C 215.964844 163.019531 214.863281 164.925781 213.761719 166.832031 C 212.949219 168.238281 212.144531 169.644531 211.339844 171.050781 C 210.953125 171.730469 210.570312 172.40625 210.183594 173.082031 L 209.765625 173.816406 L 209.398438 174.464844 C 209.160156 174.867188 208.910156 175.261719 208.652344 175.652344 C 208.132812 175.734375 208.132812 175.734375 207.46875 175.742188 L 206.707031 175.753906 L 205.867188 175.753906 C 205.574219 175.757812 205.28125 175.761719 204.984375 175.765625 C 204.1875 175.773438 203.386719 175.777344 202.589844 175.78125 C 202.089844 175.78125 201.589844 175.785156 201.089844 175.789062 C 199.53125 175.796875 197.96875 175.804688 196.40625 175.804688 C 194.601562 175.808594 192.800781 175.820312 190.996094 175.839844 C 189.601562 175.851562 188.210938 175.859375 186.816406 175.859375 C 185.984375 175.859375 185.152344 175.863281 184.320312 175.875 C 183.535156 175.886719 182.753906 175.886719 181.96875 175.882812 C 181.546875 175.882812 181.121094 175.890625 180.699219 175.898438 C 179.960938 175.890625 179.34375 175.863281 178.636719 175.652344 C 178.027344 175.078125 177.6875 174.464844 177.34375 173.707031 L 176.964844 173.074219 C 176.816406 172.800781 176.816406 172.800781 176.660156 172.519531 L 176.308594 171.882812 L 175.9375 171.210938 C 174.925781 169.382812 173.894531 167.5625 172.835938 165.757812 C 171.734375 163.882812 170.644531 161.996094 169.570312 160.105469 C 167.796875 156.996094 166.015625 153.886719 164.171875 150.820312 C 163.558594 151.554688 163.050781 152.296875 162.582031 153.132812 L 162.167969 153.859375 L 161.953125 154.242188 C 161.644531 154.785156 161.339844 155.328125 161.03125 155.867188 L 160.554688 156.707031 C 159.78125 158.070312 159.003906 159.425781 158.21875 160.78125 L 157.015625 162.863281 C 156.476562 163.796875 155.9375 164.730469 155.398438 165.664062 C 155.132812 166.128906 154.863281 166.59375 154.59375 167.058594 C 153.960938 168.152344 153.332031 169.25 152.703125 170.347656 L 151.808594 171.902344 C 151.597656 172.269531 151.390625 172.636719 151.179688 173 L 150.792969 173.671875 L 150.457031 174.261719 L 150.136719 174.789062 L 149.867188 175.246094 L 149.488281 175.652344 C 148.941406 175.757812 148.941406 175.757812 148.273438 175.753906 L 147.503906 175.757812 L 146.660156 175.75 C 146.363281 175.75 146.070312 175.75 145.773438 175.75 C 144.96875 175.75 144.167969 175.746094 143.363281 175.738281 C 142.523438 175.734375 141.683594 175.734375 140.84375 175.730469 C 139.253906 175.730469 137.664062 175.722656 136.074219 175.714844 C 134.265625 175.703125 132.457031 175.699219 130.644531 175.695312 C 126.921875 175.683594 123.199219 175.671875 119.476562 175.652344 L 119.230469 175.21875 L 118.125 173.257812 L 117.738281 172.574219 C 116.90625 171.09375 116.058594 169.625 115.199219 168.160156 C 114.097656 166.28125 113.011719 164.398438 111.933594 162.507812 C 110.921875 160.730469 109.90625 158.957031 108.882812 157.1875 C 108.609375 156.710938 108.332031 156.234375 108.058594 155.753906 C 107.5 154.785156 106.941406 153.820312 106.359375 152.867188 L 106.105469 152.445312 C 105.894531 152.097656 105.683594 151.753906 105.46875 151.410156 C 105.226562 150.820312 105.226562 150.820312 105.277344 150.214844 C 105.457031 149.46875 105.71875 148.933594 106.105469 148.273438 L 106.523438 147.546875 L 106.980469 146.773438 L 107.449219 145.960938 C 107.773438 145.40625 108.097656 144.847656 108.421875 144.292969 C 108.996094 143.308594 109.566406 142.320312 110.132812 141.335938 C 110.53125 140.640625 110.933594 139.945312 111.332031 139.253906 C 112.007812 138.089844 112.679688 136.925781 113.351562 135.761719 L 114.15625 134.363281 C 114.78125 133.28125 115.40625 132.191406 116.03125 131.105469 L 116.691406 129.957031 C 116.964844 129.476562 117.238281 129 117.511719 128.519531 L 117.890625 127.859375 L 118.21875 127.285156 L 118.613281 126.636719 L 118.835938 126.15625 C 119.144531 125.574219 119.429688 125.148438 119.910156 124.695312 C 120.84375 124.40625 121.757812 124.4375 122.730469 124.453125 L 123.59375 124.445312 C 124.371094 124.441406 125.148438 124.445312 125.925781 124.453125 C 126.738281 124.460938 127.550781 124.457031 128.367188 124.453125 C 129.90625 124.445312 131.445312 124.449219 132.984375 124.457031 C 134.738281 124.46875 136.488281 124.464844 138.242188 124.460938 C 141.847656 124.453125 145.453125 124.460938 149.058594 124.480469 L 148.785156 124.007812 L 141.363281 111.144531 L 140.558594 109.75 C 139.445312 107.820312 138.332031 105.890625 137.222656 103.960938 L 136.84375 103.308594 L 136.480469 102.667969 C 136.214844 102.214844 135.941406 101.761719 135.664062 101.316406 L 135.238281 100.617188 L 134.847656 99.992188 C 134.589844 99.433594 134.589844 99.433594 134.621094 98.996094 C 134.855469 98.457031 135.121094 97.945312 135.414062 97.433594 L 135.789062 96.761719 L 136.195312 96.042969 L 136.613281 95.304688 C 137.445312 93.835938 138.289062 92.375 139.148438 90.921875 C 139.957031 89.558594 140.75 88.1875 141.539062 86.8125 L 141.957031 86.09375 L 143.226562 83.886719 C 143.789062 82.910156 144.351562 81.933594 144.914062 80.957031 L 145.289062 80.304688 C 145.535156 79.882812 145.785156 79.460938 146.042969 79.046875 C 146.371094 78.492188 146.578125 77.957031 146.773438 77.347656 C 147.105469 76.441406 147.488281 75.679688 148.132812 74.957031 C 148.761719 74.503906 149.25 74.398438 150.015625 74.277344 " fill-opacity="1" fill-rule="nonzero"/><path fill="#1836b2" d="M 207.785156 74.601562 C 208.179688 74.574219 208.570312 74.5625 208.964844 74.558594 L 209.738281 74.542969 L 210.597656 74.53125 C 210.898438 74.527344 211.195312 74.523438 211.496094 74.519531 C 214.234375 74.476562 216.96875 74.457031 219.707031 74.4375 C 221.730469 74.425781 223.753906 74.402344 225.777344 74.367188 C 227.199219 74.34375 228.621094 74.332031 230.042969 74.328125 C 230.894531 74.328125 231.742188 74.316406 232.59375 74.296875 C 233.394531 74.28125 234.191406 74.273438 234.992188 74.28125 C 235.425781 74.28125 235.855469 74.265625 236.289062 74.25 C 237.097656 74.261719 237.691406 74.304688 238.445312 74.601562 C 239.222656 75.460938 239.675781 76.363281 240.175781 77.410156 C 240.425781 77.847656 240.679688 78.28125 240.9375 78.714844 C 241.191406 79.15625 241.445312 79.597656 241.699219 80.039062 L 242.546875 81.511719 L 242.980469 82.265625 C 243.820312 83.734375 244.667969 85.203125 245.511719 86.667969 C 246.246094 87.9375 246.984375 89.207031 247.730469 90.472656 C 249.046875 92.699219 250.335938 94.945312 251.628906 97.1875 C 252.308594 98.367188 252.988281 99.546875 253.667969 100.726562 L 254.480469 102.132812 C 255.015625 103.0625 255.554688 103.992188 256.089844 104.921875 C 257.5625 107.472656 259.027344 110.023438 260.488281 112.582031 C 261.480469 114.324219 262.480469 116.058594 263.492188 117.785156 C 264.730469 119.894531 265.945312 122.015625 267.15625 124.140625 C 268.132812 125.851562 269.117188 127.5625 270.105469 129.269531 C 271.160156 131.089844 272.199219 132.921875 273.222656 134.761719 C 274.445312 136.953125 275.699219 139.121094 276.964844 141.285156 C 277.8125 142.730469 278.648438 144.175781 279.484375 145.625 L 279.890625 146.328125 C 280.140625 146.761719 280.390625 147.195312 280.636719 147.632812 C 280.859375 148.019531 281.09375 148.402344 281.332031 148.777344 L 281.644531 149.28125 L 281.921875 149.710938 L 282.0625 150.171875 C 281.847656 151.078125 281.460938 151.828125 280.992188 152.625 L 280.605469 153.292969 L 280.1875 154.003906 C 280.039062 154.253906 279.894531 154.503906 279.75 154.753906 C 279.449219 155.273438 279.144531 155.792969 278.84375 156.3125 C 278.148438 157.5 277.460938 158.695312 276.773438 159.890625 L 275.960938 161.292969 L 275.558594 161.996094 L 274.34375 164.097656 L 273.9375 164.800781 L 273.132812 166.195312 C 272.503906 167.285156 271.878906 168.371094 271.25 169.460938 L 270.589844 170.617188 C 270.3125 171.097656 270.035156 171.578125 269.757812 172.0625 L 269.375 172.722656 L 269.042969 173.300781 C 268.921875 173.507812 268.800781 173.710938 268.675781 173.921875 L 268.503906 174.351562 C 268.253906 174.886719 268.023438 175.242188 267.597656 175.652344 C 266.660156 175.933594 265.738281 175.921875 264.765625 175.929688 C 264.476562 175.9375 264.183594 175.945312 263.894531 175.957031 C 263.105469 175.976562 262.316406 175.988281 261.527344 175.996094 C 261.03125 176.003906 260.535156 176.007812 260.042969 176.015625 C 258.492188 176.039062 256.941406 176.058594 255.390625 176.0625 C 253.609375 176.070312 251.828125 176.101562 250.042969 176.152344 C 248.664062 176.1875 247.28125 176.207031 245.898438 176.207031 C 245.074219 176.210938 244.253906 176.222656 243.429688 176.25 C 239.289062 176.398438 239.289062 176.398438 237.582031 175.652344 C 236.203125 174.410156 235.480469 172.765625 234.804688 171.070312 C 234.492188 170.304688 234.105469 169.636719 233.671875 168.933594 L 232.953125 167.6875 L 231.730469 165.5625 C 231.1875 164.625 230.648438 163.6875 230.105469 162.75 L 229.296875 161.347656 C 228.621094 160.171875 227.9375 158.992188 227.257812 157.816406 C 225.972656 155.589844 224.6875 153.359375 223.425781 151.117188 C 222.367188 149.230469 221.28125 147.359375 220.1875 145.492188 C 219.21875 143.828125 218.253906 142.160156 217.300781 140.484375 C 215.78125 137.824219 214.257812 135.167969 212.722656 132.515625 C 212.046875 131.347656 211.375 130.179688 210.703125 129.011719 L 209.890625 127.609375 L 201.796875 113.574219 L 201.390625 112.871094 L 200.582031 111.472656 C 199.761719 110.050781 198.941406 108.625 198.117188 107.203125 C 197.84375 106.730469 197.574219 106.261719 197.304688 105.785156 C 196.664062 104.664062 196.007812 103.558594 195.300781 102.472656 L 194.917969 101.863281 C 194.679688 101.488281 194.433594 101.117188 194.179688 100.75 C 193.851562 100.222656 193.644531 99.832031 193.535156 99.214844 C 193.808594 98.324219 194.3125 97.613281 194.832031 96.839844 C 195.089844 96.390625 195.347656 95.9375 195.601562 95.484375 C 195.878906 94.996094 196.15625 94.507812 196.4375 94.019531 L 196.894531 93.222656 C 198.296875 90.773438 199.707031 88.324219 201.121094 85.878906 C 201.53125 85.171875 201.941406 84.460938 202.347656 83.75 C 203.675781 81.445312 205.007812 79.144531 206.355469 76.855469 L 206.71875 76.238281 L 207.050781 75.679688 L 207.339844 75.1875 C 207.570312 74.816406 207.570312 74.816406 207.785156 74.601562 " fill-opacity="1" fill-rule="nonzero"/><path fill="#86c6ec" d="M 120.488281 124.507812 C 121.238281 124.429688 121.96875 124.417969 122.71875 124.421875 L 123.578125 124.40625 C 124.355469 124.390625 125.128906 124.390625 125.90625 124.390625 C 126.554688 124.390625 127.203125 124.386719 127.851562 124.378906 C 129.382812 124.367188 130.914062 124.367188 132.445312 124.371094 C 134.023438 124.375 135.597656 124.359375 137.175781 124.335938 C 138.53125 124.316406 139.886719 124.308594 141.242188 124.3125 C 142.050781 124.3125 142.859375 124.308594 143.667969 124.292969 C 147.734375 124.21875 147.734375 124.21875 149.273438 124.695312 C 149.894531 125.125 150.25 125.582031 150.601562 126.246094 C 150.78125 126.664062 150.9375 127.085938 151.074219 127.519531 C 151.308594 128.199219 151.679688 128.773438 152.054688 129.390625 C 152.328125 129.871094 152.601562 130.351562 152.875 130.835938 C 153.179688 131.367188 153.480469 131.894531 153.78125 132.425781 L 154.011719 132.824219 C 154.726562 134.078125 155.453125 135.324219 156.183594 136.570312 C 157.054688 138.058594 157.917969 139.550781 158.773438 141.046875 C 159.136719 141.691406 159.503906 142.332031 159.867188 142.976562 C 160.5625 144.195312 161.265625 145.40625 162 146.601562 L 162.398438 147.257812 C 162.648438 147.660156 162.898438 148.0625 163.152344 148.460938 L 163.484375 149.003906 L 163.777344 149.46875 C 163.957031 149.957031 163.957031 149.957031 163.914062 150.597656 C 163.738281 151.257812 163.519531 151.734375 163.171875 152.316406 L 162.808594 152.921875 L 162.417969 153.574219 L 161.582031 154.976562 L 161.148438 155.707031 C 160.464844 156.863281 159.792969 158.023438 159.125 159.1875 L 158.71875 159.890625 C 157.792969 161.496094 156.875 163.105469 155.957031 164.714844 C 154.652344 167 153.339844 169.28125 152.011719 171.550781 C 149.796875 175.34375 149.796875 175.34375 149.488281 175.652344 C 149.101562 175.671875 148.710938 175.679688 148.324219 175.675781 L 147.558594 175.679688 L 146.710938 175.675781 L 145.820312 175.675781 C 145.015625 175.675781 144.210938 175.675781 143.40625 175.671875 C 142.566406 175.671875 141.726562 175.671875 140.886719 175.671875 C 139.292969 175.671875 137.699219 175.667969 136.105469 175.667969 C 134.292969 175.664062 132.480469 175.664062 130.667969 175.660156 C 126.9375 175.660156 123.207031 175.65625 119.476562 175.652344 L 119.230469 175.21875 L 118.125 173.257812 L 117.738281 172.574219 C 116.90625 171.09375 116.058594 169.625 115.199219 168.160156 C 114.097656 166.28125 113.011719 164.398438 111.933594 162.507812 C 110.921875 160.730469 109.90625 158.957031 108.882812 157.1875 C 108.609375 156.710938 108.332031 156.234375 108.058594 155.753906 C 107.5 154.785156 106.941406 153.820312 106.359375 152.867188 L 106.105469 152.445312 C 105.894531 152.097656 105.683594 151.753906 105.46875 151.410156 C 105.226562 150.820312 105.226562 150.820312 105.277344 150.214844 C 105.457031 149.46875 105.71875 148.933594 106.105469 148.273438 L 106.523438 147.546875 L 106.980469 146.773438 L 107.449219 145.960938 C 107.773438 145.40625 108.097656 144.847656 108.421875 144.292969 C 108.996094 143.308594 109.566406 142.320312 110.132812 141.335938 C 110.53125 140.640625 110.933594 139.945312 111.332031 139.253906 C 112.007812 138.089844 112.679688 136.925781 113.351562 135.761719 L 114.15625 134.363281 C 114.78125 133.28125 115.40625 132.191406 116.03125 131.105469 L 116.691406 129.957031 C 116.964844 129.476562 117.238281 129 117.511719 128.519531 L 117.890625 127.859375 L 118.21875 127.285156 L 118.613281 126.636719 L 118.835938 126.160156 C 119.265625 125.347656 119.589844 124.796875 120.488281 124.507812 " fill-opacity="1" fill-rule="nonzero"/><path fill="#000000" d="M 119.910156 233.300781 C 120.5625 233.28125 121.210938 233.277344 121.867188 233.28125 L 122.460938 233.28125 C 123.089844 233.28125 123.71875 233.285156 124.347656 233.289062 C 124.773438 233.289062 125.199219 233.289062 125.625 233.289062 C 126.671875 233.292969 127.714844 233.296875 128.761719 233.300781 C 129.148438 234.175781 129.355469 235.054688 129.539062 235.988281 L 129.636719 236.46875 C 129.738281 236.988281 129.839844 237.507812 129.945312 238.027344 L 130.160156 239.113281 C 130.347656 240.0625 130.535156 241.011719 130.722656 241.960938 C 130.914062 242.929688 131.109375 243.902344 131.300781 244.871094 C 131.679688 246.773438 132.054688 248.671875 132.429688 250.574219 L 132.648438 250.574219 L 132.761719 249.949219 C 133.113281 248 133.464844 246.050781 133.820312 244.105469 C 134 243.105469 134.179688 242.101562 134.363281 241.101562 C 134.539062 240.136719 134.710938 239.167969 134.886719 238.203125 L 135.085938 237.097656 C 135.179688 236.582031 135.273438 236.0625 135.367188 235.546875 L 135.453125 235.085938 C 135.5625 234.472656 135.6875 233.894531 135.886719 233.300781 C 137.171875 233.296875 138.460938 233.292969 139.75 233.289062 C 140.1875 233.289062 140.625 233.285156 141.0625 233.285156 C 141.691406 233.28125 142.320312 233.28125 142.949219 233.28125 L 143.546875 233.277344 C 144.015625 233.277344 144.484375 233.289062 144.953125 233.300781 L 145.171875 233.515625 C 145.214844 233.851562 145.246094 234.1875 145.269531 234.527344 L 145.320312 235.1875 L 145.375 235.917969 L 145.429688 236.683594 C 145.484375 237.378906 145.535156 238.078125 145.585938 238.773438 C 145.636719 239.5 145.691406 240.226562 145.746094 240.953125 C 145.835938 242.179688 145.925781 243.402344 146.015625 244.625 C 146.121094 246.039062 146.226562 247.449219 146.332031 248.863281 C 146.441406 250.367188 146.554688 251.871094 146.664062 253.375 L 146.761719 254.675781 C 146.820312 255.484375 146.878906 256.292969 146.9375 257.101562 L 146.992188 257.828125 L 147.042969 258.496094 L 147.085938 259.078125 C 147.117188 259.695312 147.113281 260.316406 147.113281 260.9375 L 139.773438 260.9375 C 139.714844 259.332031 139.660156 257.722656 139.605469 256.117188 C 139.578125 255.367188 139.550781 254.617188 139.523438 253.867188 C 139.378906 249.746094 139.308594 245.632812 139.339844 241.507812 L 139.21875 242.109375 C 138.839844 243.980469 138.464844 245.851562 138.085938 247.722656 C 137.890625 248.683594 137.695312 249.644531 137.503906 250.609375 C 137.316406 251.535156 137.128906 252.464844 136.9375 253.394531 C 136.867188 253.746094 136.796875 254.101562 136.726562 254.457031 C 136.625 254.953125 136.523438 255.449219 136.421875 255.945312 L 136.335938 256.390625 C 136.214844 256.984375 136.078125 257.554688 135.886719 258.132812 L 128.976562 258.132812 C 128.140625 254.921875 127.449219 251.679688 126.753906 248.433594 C 126.589844 247.675781 126.425781 246.917969 126.261719 246.160156 C 125.941406 244.679688 125.625 243.199219 125.304688 241.722656 L 125.308594 242.101562 C 125.347656 252.824219 125.347656 252.824219 125.210938 257.039062 L 125.1875 257.875 C 125.148438 258.9375 125.082031 259.890625 124.875 260.9375 L 117.75 260.9375 C 117.882812 257.722656 118.070312 254.519531 118.308594 251.3125 L 118.410156 249.96875 C 118.476562 249.042969 118.546875 248.113281 118.613281 247.183594 C 118.703125 246 118.792969 244.816406 118.878906 243.632812 C 118.980469 242.273438 119.078125 240.917969 119.179688 239.558594 C 119.226562 238.949219 119.269531 238.339844 119.316406 237.730469 L 119.355469 237.195312 C 119.425781 236.289062 119.5 235.386719 119.582031 234.480469 L 119.628906 233.9375 L 119.691406 233.515625 Z M 236.273438 239.3125 C 237.265625 239.761719 237.917969 240.273438 238.582031 241.140625 C 238.757812 241.402344 238.929688 241.667969 239.09375 241.9375 L 239.363281 241.691406 C 240.492188 240.695312 241.625 239.855469 243.023438 239.28125 C 244.515625 239.011719 246.132812 238.898438 247.597656 239.359375 C 248.554688 239.796875 249.257812 240.460938 249.890625 241.289062 C 250.78125 242.769531 250.949219 244.253906 250.988281 245.960938 C 250.996094 246.910156 250.996094 247.863281 250.992188 248.8125 L 250.992188 249.867188 C 250.988281 250.78125 250.988281 251.699219 250.984375 252.617188 C 250.984375 253.71875 250.980469 254.824219 250.980469 255.925781 C 250.976562 257.597656 250.972656 259.269531 250.96875 260.9375 L 243.84375 260.9375 L 243.8125 257.671875 C 243.804688 256.988281 243.796875 256.300781 243.789062 255.617188 C 243.777344 254.535156 243.765625 253.449219 243.753906 252.363281 C 243.746094 251.488281 243.734375 250.613281 243.722656 249.738281 C 243.71875 249.40625 243.71875 249.070312 243.714844 248.738281 C 243.710938 248.269531 243.707031 247.800781 243.699219 247.335938 L 243.6875 246.527344 C 243.628906 245.839844 243.5 245.359375 243.199219 244.746094 L 242.980469 244.527344 C 242.378906 244.421875 242.378906 244.421875 241.6875 244.527344 C 241.058594 244.960938 240.5625 245.347656 240.140625 245.988281 C 239.894531 246.640625 239.898438 247.203125 239.890625 247.898438 L 239.882812 248.328125 C 239.875 248.792969 239.871094 249.257812 239.867188 249.722656 C 239.863281 250.042969 239.859375 250.367188 239.855469 250.691406 C 239.84375 251.539062 239.835938 252.386719 239.828125 253.238281 C 239.820312 254.257812 239.804688 255.277344 239.792969 256.296875 C 239.773438 257.84375 239.757812 259.390625 239.742188 260.9375 L 232.617188 260.9375 L 232.578125 257.625 C 232.570312 256.929688 232.558594 256.234375 232.550781 255.542969 C 232.535156 254.441406 232.523438 253.339844 232.511719 252.238281 C 232.5 251.351562 232.488281 250.464844 232.476562 249.578125 C 232.472656 249.238281 232.46875 248.898438 232.464844 248.5625 C 232.457031 248.085938 232.453125 247.613281 232.445312 247.136719 L 232.433594 246.320312 C 232.410156 245.714844 232.324219 245.117188 232.183594 244.527344 C 231.582031 244.488281 231.054688 244.460938 230.457031 244.527344 C 229.820312 244.910156 229.464844 245.273438 229.03125 245.871094 C 228.667969 246.601562 228.644531 247.109375 228.636719 247.921875 L 228.628906 248.351562 C 228.625 248.816406 228.621094 249.277344 228.621094 249.742188 L 228.609375 250.710938 C 228.597656 251.558594 228.59375 252.40625 228.585938 253.253906 C 228.578125 254.269531 228.566406 255.289062 228.554688 256.304688 C 228.539062 257.851562 228.527344 259.394531 228.515625 260.9375 L 221.390625 260.9375 L 221.390625 239.777344 L 227.652344 239.777344 L 228.300781 241.722656 L 228.617188 241.421875 C 229.695312 240.433594 230.746094 239.667969 232.148438 239.222656 C 233.492188 238.960938 234.953125 238.933594 236.273438 239.3125 M 205.195312 192.277344 L 205.195312 197.457031 L 209.945312 197.457031 C 209.835938 199.15625 209.671875 200.765625 209.296875 202.425781 L 205.195312 202.425781 C 205.214844 203.789062 205.238281 205.152344 205.265625 206.515625 C 205.273438 206.980469 205.28125 207.445312 205.285156 207.910156 C 205.296875 208.574219 205.308594 209.242188 205.324219 209.910156 L 205.328125 210.539062 C 205.34375 211.9375 205.34375 211.9375 205.84375 213.222656 C 206.515625 213.574219 206.515625 213.574219 207.355469 213.652344 C 207.867188 213.578125 207.867188 213.578125 208.378906 213.445312 L 208.902344 213.320312 L 209.296875 213.222656 C 209.660156 213.894531 210.019531 214.570312 210.378906 215.246094 L 210.691406 215.828125 L 210.984375 216.382812 L 211.257812 216.898438 C 211.457031 217.324219 211.457031 217.324219 211.457031 217.753906 C 211.132812 217.929688 210.8125 218.097656 210.484375 218.269531 L 209.9375 218.554688 C 208.488281 219.1875 207.121094 219.351562 205.558594 219.347656 L 205.015625 219.347656 C 203.300781 219.3125 201.96875 218.910156 200.484375 218.050781 C 199.5625 217.046875 198.90625 215.890625 198.433594 214.609375 C 198.105469 212.960938 198.039062 211.335938 198.050781 209.65625 L 198.050781 209.027344 C 198.050781 208.367188 198.054688 207.710938 198.058594 207.054688 C 198.058594 206.605469 198.058594 206.15625 198.058594 205.707031 C 198.0625 204.613281 198.066406 203.519531 198.070312 202.425781 L 195.480469 202.425781 L 195.261719 200.050781 C 194.914062 200.503906 194.5625 200.957031 194.210938 201.414062 L 193.910156 201.800781 C 193.480469 202.359375 193.0625 202.917969 192.671875 203.503906 C 192.070312 203.269531 191.503906 203.023438 190.933594 202.722656 C 189.824219 202.25 188.667969 202.289062 187.492188 202.425781 C 186.773438 202.605469 186.570312 202.773438 185.980469 203.289062 C 185.28125 204.496094 184.960938 205.789062 184.898438 207.175781 L 184.875 207.679688 C 184.828125 209.335938 184.96875 210.957031 185.695312 212.464844 C 186.179688 213.039062 186.179688 213.039062 186.882812 213.410156 C 187.855469 213.695312 188.644531 213.804688 189.648438 213.652344 C 190.226562 213.464844 190.769531 213.246094 191.320312 213 C 191.808594 212.789062 191.808594 212.789062 192.671875 212.574219 L 195.480469 216.675781 C 194.257812 217.898438 194.257812 217.898438 193.253906 218.335938 L 192.675781 218.59375 C 190.480469 219.40625 188.296875 219.453125 185.980469 219.265625 C 184.15625 218.941406 182.484375 218.234375 181.011719 217.105469 C 179.382812 215.640625 178.425781 213.816406 177.707031 211.761719 C 177.132812 209.042969 177.242188 206.398438 177.988281 203.71875 C 178.675781 201.84375 179.746094 200.308594 181.230469 198.96875 C 182.714844 197.882812 184.367188 197.101562 186.195312 196.8125 C 188.546875 196.667969 190.691406 196.707031 192.886719 197.675781 C 194.707031 198.628906 194.707031 198.628906 195.261719 199.1875 L 195.480469 197.457031 L 198.070312 197.457031 L 198.0625 196.523438 L 198.058594 195.3125 L 198.050781 194.695312 L 198.050781 194.105469 L 198.046875 193.5625 L 198.070312 193.140625 L 198.285156 192.925781 C 199.113281 192.777344 199.949219 192.6875 200.78125 192.585938 C 201.015625 192.558594 201.246094 192.527344 201.484375 192.496094 L 202.800781 192.332031 C 203.597656 192.265625 204.398438 192.277344 205.195312 192.277344 M 184.035156 230.925781 L 184.25 241.507812 L 185.980469 239.996094 C 187.21875 239.277344 188.484375 239.074219 189.90625 239.035156 C 191.082031 239.078125 192.082031 239.171875 193.105469 239.777344 C 194.007812 240.375 194.628906 241 195.128906 241.964844 C 195.652344 243.097656 195.726562 244.109375 195.71875 245.347656 L 195.71875 245.859375 C 195.71875 246.417969 195.71875 246.972656 195.714844 247.527344 L 195.714844 248.6875 C 195.714844 249.703125 195.710938 250.714844 195.710938 251.730469 C 195.707031 252.769531 195.707031 253.804688 195.707031 254.839844 C 195.703125 256.875 195.699219 258.90625 195.695312 260.9375 L 188.570312 260.9375 L 188.546875 257.511719 C 188.539062 256.796875 188.53125 256.082031 188.523438 255.367188 C 188.511719 254.230469 188.503906 253.097656 188.496094 251.960938 C 188.488281 251.042969 188.480469 250.128906 188.46875 249.214844 C 188.464844 248.863281 188.464844 248.515625 188.460938 248.164062 C 188.460938 247.675781 188.453125 247.1875 188.449219 246.695312 L 188.441406 245.851562 C 188.40625 245.1875 188.40625 245.1875 188.070312 244.761719 C 187.675781 244.472656 187.675781 244.472656 186.992188 244.433594 C 186.179688 244.480469 186.179688 244.480469 185.492188 244.90625 C 184.945312 245.355469 184.609375 245.65625 184.25 246.257812 C 184.148438 246.9375 184.148438 246.9375 184.160156 247.703125 L 184.152344 248.136719 C 184.144531 248.609375 184.144531 249.082031 184.140625 249.550781 L 184.128906 250.535156 C 184.121094 251.398438 184.113281 252.261719 184.105469 253.121094 C 184.097656 254.15625 184.085938 255.191406 184.074219 256.226562 C 184.058594 257.796875 184.046875 259.367188 184.035156 260.9375 L 176.910156 260.9375 C 176.90625 257.113281 176.902344 253.289062 176.898438 249.464844 C 176.898438 247.6875 176.898438 245.910156 176.894531 244.136719 C 176.890625 242.589844 176.890625 241.042969 176.890625 239.496094 C 176.890625 238.675781 176.890625 237.855469 176.886719 237.035156 C 176.886719 236.265625 176.886719 235.492188 176.886719 234.722656 C 176.886719 234.304688 176.886719 233.882812 176.882812 233.464844 L 176.882812 232.058594 L 176.910156 231.574219 L 177.125 231.359375 C 178.007812 231.226562 178.894531 231.144531 179.78125 231.054688 C 180.226562 231.007812 180.671875 230.960938 181.117188 230.910156 L 181.960938 230.824219 L 182.742188 230.742188 C 183.386719 230.710938 183.386719 230.710938 184.035156 230.925781 M 141.714844 190.980469 L 149.488281 190.980469 C 149.882812 192.765625 150.273438 194.554688 150.664062 196.339844 L 150.839844 197.144531 C 151.464844 199.996094 152.082031 202.847656 152.675781 205.703125 L 152.8125 206.363281 C 153.027344 207.382812 153.234375 208.402344 153.445312 209.421875 L 153.667969 210.507812 L 153.769531 211.003906 C 153.847656 211.382812 153.933594 211.761719 154.023438 212.140625 L 154.238281 212.355469 L 154.394531 211.566406 C 154.871094 209.105469 155.351562 206.644531 155.832031 204.1875 C 156.078125 202.921875 156.328125 201.660156 156.574219 200.394531 C 156.808594 199.175781 157.046875 197.957031 157.285156 196.734375 L 157.558594 195.335938 C 157.6875 194.6875 157.8125 194.035156 157.941406 193.382812 L 158.054688 192.796875 L 158.160156 192.261719 L 158.25 191.792969 C 158.339844 191.414062 158.339844 191.414062 158.558594 190.980469 L 165.898438 190.980469 C 165.65625 192.925781 165.65625 192.925781 165.460938 193.660156 L 165.332031 194.164062 L 165.1875 194.703125 L 165.035156 195.28125 C 164.867188 195.914062 164.703125 196.542969 164.535156 197.175781 L 164.183594 198.507812 C 163.9375 199.441406 163.691406 200.375 163.441406 201.304688 C 163.132812 202.484375 162.820312 203.664062 162.507812 204.84375 C 161.296875 209.445312 160.078125 214.042969 158.773438 218.617188 L 149.273438 218.617188 L 147.285156 211.480469 L 146.0625 207.09375 C 145.359375 204.566406 144.65625 202.035156 143.953125 199.503906 C 143.636719 198.367188 143.320312 197.230469 143.003906 196.09375 C 142.796875 195.359375 142.59375 194.625 142.390625 193.890625 L 142.175781 193.125 L 141.988281 192.441406 L 141.828125 191.863281 C 141.714844 191.414062 141.714844 191.414062 141.714844 190.980469 M 268.890625 239.777344 C 270.414062 240.453125 271.726562 241.347656 272.746094 242.671875 C 273.992188 244.515625 274.683594 246.425781 274.9375 248.632812 C 275.089844 251.371094 274.878906 253.925781 273.734375 256.457031 C 272.871094 258.054688 271.726562 259.304688 270.179688 260.265625 C 267.820312 261.5 265.726562 261.703125 263.109375 261.652344 C 261.445312 261.582031 260.035156 261.203125 258.578125 260.390625 C 257.007812 259.363281 255.808594 258.121094 254.910156 256.472656 C 253.699219 253.828125 253.570312 251.0625 253.777344 248.199219 C 254.050781 246.144531 254.886719 244.304688 256.007812 242.574219 C 257.003906 241.285156 258.453125 240.390625 259.9375 239.761719 C 260.402344 239.605469 260.859375 239.464844 261.335938 239.347656 L 261.8125 239.226562 C 264.128906 238.855469 266.695312 238.957031 268.890625 239.777344 M 262.550781 244.597656 C 261.859375 245.300781 261.578125 245.902344 261.28125 246.835938 C 260.730469 249.257812 260.757812 251.832031 261.335938 254.246094 C 261.597656 254.933594 261.886719 255.453125 262.414062 255.972656 C 263.121094 256.453125 263.121094 256.453125 263.925781 256.621094 C 264.710938 256.59375 265.289062 256.460938 266.015625 256.175781 C 266.722656 255.582031 267.058594 254.886719 267.378906 254.03125 C 267.660156 252.828125 267.644531 251.652344 267.648438 250.425781 L 267.664062 249.746094 C 267.671875 248.292969 267.550781 246.949219 266.949219 245.609375 C 266.5 245.019531 266.109375 244.632812 265.4375 244.3125 C 264.378906 244.097656 263.546875 244.207031 262.550781 244.597656 M 226.984375 197.390625 C 228.667969 198.109375 229.984375 199.207031 231.160156 200.601562 C 232.203125 202.058594 232.773438 203.6875 233.050781 205.449219 C 233.269531 208.203125 233.324219 211.089844 232.183594 213.652344 C 231.34375 215.332031 230.257812 216.65625 228.730469 217.753906 C 227.179688 218.699219 225.601562 219.257812 223.78125 219.339844 C 221.050781 219.386719 218.78125 219.144531 216.34375 217.808594 C 214.84375 216.835938 213.941406 215.660156 213.117188 214.085938 C 212.351562 212.464844 212.015625 210.902344 211.890625 209.117188 L 211.855469 208.636719 C 211.769531 206.324219 212.203125 203.964844 213.226562 201.886719 C 213.914062 200.628906 214.601562 199.59375 215.777344 198.753906 C 219.285156 196.691406 223.066406 196.085938 226.984375 197.390625 M 220.96875 202.179688 C 220.367188 202.644531 220.054688 203.148438 219.703125 203.816406 C 219.238281 205.210938 219.191406 206.539062 219.191406 208 L 219.183594 208.554688 C 219.179688 210.09375 219.3125 211.507812 220.066406 212.871094 C 220.496094 213.402344 220.792969 213.757812 221.390625 214.085938 C 222.109375 214.304688 222.109375 214.304688 222.902344 214.300781 C 223.738281 214.042969 224.261719 213.8125 224.867188 213.175781 C 225.734375 211.902344 225.863281 210.292969 225.984375 208.785156 C 226.03125 206.980469 225.839844 205.226562 225.277344 203.503906 C 224.957031 202.945312 224.679688 202.644531 224.195312 202.210938 C 223.488281 201.855469 222.769531 201.910156 221.988281 201.917969 C 221.40625 201.960938 221.40625 201.960938 220.96875 202.179688 M 213.683594 240 C 214.789062 240.621094 215.75 241.511719 216.421875 242.585938 C 217.042969 244.015625 217.167969 245.332031 217.167969 246.878906 L 217.175781 247.539062 C 217.183594 248.230469 217.1875 248.925781 217.191406 249.617188 C 217.199219 250.308594 217.203125 251.003906 217.210938 251.695312 C 217.21875 252.125 217.222656 252.554688 217.222656 252.984375 C 217.234375 254.191406 217.328125 255.253906 217.71875 256.40625 L 218.367188 256.835938 C 218.265625 258.527344 217.667969 260.015625 217.070312 261.585938 C 215.597656 261.421875 214.335938 261.234375 213.105469 260.371094 C 212.621094 259.964844 212.246094 259.515625 211.890625 258.996094 C 211.300781 259.234375 210.984375 259.472656 210.539062 259.941406 C 209.75 260.695312 208.867188 261.183594 207.8125 261.484375 C 206.257812 261.828125 204.351562 261.769531 202.792969 261.445312 C 201.527344 260.984375 200.46875 260.226562 199.582031 259.210938 C 198.957031 258.222656 198.535156 257.234375 198.4375 256.0625 C 198.371094 254.519531 198.375 253.164062 199.027344 251.734375 C 199.609375 250.742188 200.257812 250.015625 201.207031 249.363281 C 203.527344 248.054688 206.089844 247.730469 208.71875 247.742188 C 209.199219 247.746094 209.679688 247.757812 210.160156 247.769531 C 210.144531 247.035156 210.097656 246.328125 209.945312 245.609375 C 209.5 244.929688 209.5 244.929688 208.867188 244.527344 C 207.316406 244.09375 205.570312 244.355469 204.019531 244.6875 C 203.585938 244.800781 203.152344 244.917969 202.71875 245.042969 C 202.171875 245.175781 202.171875 245.175781 201.308594 245.175781 C 201.09375 244.542969 200.875 243.910156 200.660156 243.273438 L 200.472656 242.730469 L 200.296875 242.203125 L 200.132812 241.71875 C 200.015625 241.289062 200.015625 241.289062 200.015625 240.640625 C 204.074219 238.949219 209.539062 238.15625 213.683594 240 M 206.449219 252.03125 C 205.859375 252.503906 205.679688 252.703125 205.410156 253.382812 C 205.34375 253.863281 205.34375 253.863281 205.359375 254.351562 L 205.355469 254.847656 C 205.417969 255.390625 205.550781 255.726562 205.84375 256.1875 C 206.425781 256.640625 206.425781 256.640625 206.933594 256.691406 C 207.855469 256.707031 208.347656 256.667969 209.175781 256.214844 C 209.722656 255.777344 209.722656 255.777344 210.160156 255.324219 C 210.191406 254.695312 210.203125 254.089844 210.1875 253.460938 L 210.183594 252.9375 C 210.179688 252.511719 210.171875 252.082031 210.160156 251.652344 C 208.246094 251.5 208.246094 251.5 206.449219 252.03125 M 169.136719 234.597656 L 169.136719 239.777344 L 173.886719 239.777344 C 173.785156 240.566406 173.683594 241.351562 173.578125 242.140625 L 173.488281 242.820312 L 173.402344 243.46875 L 173.324219 244.070312 L 173.238281 244.527344 L 173.023438 244.746094 C 172.734375 244.761719 172.441406 244.769531 172.152344 244.765625 L 171.625 244.765625 L 171.066406 244.757812 L 170.507812 244.753906 C 170.050781 244.753906 169.59375 244.75 169.136719 244.746094 C 169.164062 246.175781 169.191406 247.605469 169.21875 249.03125 C 169.226562 249.519531 169.234375 250.003906 169.246094 250.492188 C 169.257812 251.191406 169.269531 251.890625 169.285156 252.589844 L 169.296875 253.246094 L 169.308594 253.863281 L 169.320312 254.402344 C 169.351562 254.878906 169.4375 255.300781 169.570312 255.757812 C 170.832031 256.023438 171.785156 255.878906 173.023438 255.539062 C 173.304688 256.027344 173.582031 256.511719 173.859375 257 L 174.097656 257.414062 C 174.316406 257.796875 174.535156 258.179688 174.75 258.5625 L 175.035156 259.039062 C 175.183594 259.425781 175.183594 259.425781 175.179688 259.875 L 174.96875 260.289062 C 174.417969 260.605469 174.417969 260.605469 173.726562 260.871094 L 173.039062 261.144531 C 171.0625 261.820312 168.734375 261.84375 166.6875 261.445312 C 165.507812 261.058594 164.5625 260.484375 163.664062 259.625 C 162.765625 258.585938 162.382812 257.425781 162.097656 256.101562 C 161.9375 255.066406 161.960938 254.035156 161.96875 252.988281 L 161.972656 252.273438 C 161.972656 251.519531 161.980469 250.769531 161.984375 250.019531 C 161.988281 249.511719 161.988281 249 161.992188 248.488281 C 161.996094 247.238281 162.003906 245.992188 162.011719 244.746094 L 161.453125 244.753906 L 160.730469 244.757812 L 160.007812 244.765625 L 159.421875 244.746094 L 159.207031 244.527344 C 159.1875 244.175781 159.179688 243.824219 159.183594 243.46875 L 159.1875 242.820312 L 159.191406 242.140625 L 159.195312 241.457031 C 159.199219 240.898438 159.199219 240.339844 159.207031 239.777344 L 162.011719 239.777344 L 162.011719 235.246094 C 162.835938 235.136719 163.660156 235.027344 164.480469 234.921875 L 165.179688 234.828125 L 165.871094 234.738281 L 166.496094 234.65625 C 167.375 234.582031 168.257812 234.597656 169.136719 234.597656 M 249.242188 196.8125 L 250.539062 197.242188 L 249.457031 203.71875 C 248.660156 203.878906 248.191406 203.949219 247.421875 203.910156 C 246.773438 203.90625 246.363281 203.957031 245.734375 204.152344 C 244.921875 204.742188 244.480469 205.40625 244.0625 206.3125 C 243.449219 207.789062 243.3125 209.125 243.300781 210.710938 L 243.289062 211.402344 C 243.28125 212.121094 243.273438 212.839844 243.265625 213.558594 L 243.242188 215.03125 C 243.222656 216.226562 243.210938 217.421875 243.199219 218.617188 L 236.289062 218.617188 L 236.289062 197.457031 L 242.332031 197.457031 L 242.980469 200.914062 L 243.628906 199.808594 C 244.347656 198.679688 245.058594 197.90625 246.21875 197.242188 C 247.207031 196.792969 248.171875 196.675781 249.242188 196.8125 M 150.136719 239.777344 L 157.046875 239.777344 L 157.261719 239.996094 C 157.28125 240.644531 157.289062 241.292969 157.285156 241.941406 L 157.285156 242.5625 C 157.285156 243.238281 157.285156 243.917969 157.28125 244.597656 L 157.28125 246.003906 C 157.28125 247.242188 157.28125 248.480469 157.277344 249.71875 C 157.273438 250.980469 157.273438 252.242188 157.273438 253.503906 C 157.269531 255.984375 157.265625 258.460938 157.261719 260.9375 L 150.136719 260.9375 Z M 167.410156 197.457031 L 174.320312 197.457031 L 174.320312 218.617188 L 167.410156 218.617188 Z M 156.15625 229.035156 C 156.855469 229.613281 157.3125 230.285156 157.640625 231.128906 C 157.757812 232.109375 157.75 232.902344 157.464844 233.855469 C 156.960938 234.75 156.363281 235.296875 155.535156 235.890625 C 154.75 236.285156 153.851562 236.164062 152.988281 236.152344 C 152.296875 236.109375 152.296875 236.109375 151.539062 235.867188 C 150.679688 235.21875 150.097656 234.527344 149.625 233.558594 C 149.441406 232.632812 149.476562 231.839844 149.703125 230.925781 C 150.199219 229.988281 150.753906 229.335938 151.648438 228.765625 C 153.25 228.167969 154.597656 228.359375 156.15625 229.035156 M 172.375 186.230469 C 173.316406 186.726562 173.945312 187.289062 174.535156 188.175781 C 174.910156 188.957031 175 189.585938 174.941406 190.441406 C 174.839844 191.128906 174.707031 191.496094 174.375 192.128906 C 173.890625 192.707031 173.425781 193.144531 172.808594 193.574219 C 171.6875 193.945312 170.523438 193.890625 169.351562 193.789062 C 168.292969 193.296875 167.65625 192.558594 166.976562 191.628906 C 166.660156 190.867188 166.707031 190.070312 166.761719 189.253906 C 167.03125 188.429688 167.339844 187.835938 167.867188 187.148438 C 169.222656 186.089844 170.714844 185.769531 172.375 186.230469 M 326.757812 284.691406 L 327.1875 284.90625 L 326.972656 285.554688 L 327.40625 285.769531 L 326.972656 285.769531 L 326.757812 286.199219 Z M 325.460938 284.691406 L 325.679688 284.691406 L 325.679688 286.199219 L 325.460938 286.199219 Z M 326.542969 287.066406 L 327.835938 287.066406 L 327.835938 287.28125 L 326.542969 287.28125 Z M 327.40625 283.824219 L 328.054688 284.042969 Z M 326.324219 283.824219 L 326.972656 284.042969 Z M 327.835938 286.847656 L 328.269531 287.066406 Z M 326.109375 286.847656 L 326.542969 287.066406 Z M 326.109375 286.847656 " fill-opacity="1" fill-rule="nonzero"/></svg>