<svg xmlns="http://www.w3.org/2000/svg" xmlns:xlink="http://www.w3.org/1999/xlink" width="500" zoomAndPan="magnify" viewBox="0 0 375 374.999991" height="500" preserveAspectRatio="xMidYMid meet" version="1.0"><defs><clipPath id="74c22a8137"><path d="M 358.660156 314.605469 L 363.527344 314.605469 L 363.527344 319.472656 L 358.660156 319.472656 Z M 358.660156 314.605469 " clip-rule="nonzero"/></clipPath><clipPath id="6c223a7e1d"><path d="M 361.09375 316.292969 C 361.339844 316.292969 361.484375 316.433594 361.484375 316.660156 C 361.484375 316.890625 361.347656 317.023438 361.105469 317.023438 L 360.636719 317.023438 L 360.636719 316.292969 Z M 360.398438 316.082031 L 360.398438 317.988281 L 360.636719 317.988281 L 360.636719 317.234375 L 361.105469 317.234375 L 361.511719 317.988281 L 361.792969 317.988281 L 361.355469 317.199219 C 361.589844 317.125 361.734375 316.917969 361.734375 316.652344 C 361.734375 316.3125 361.496094 316.089844 361.125 316.089844 Z M 361.09375 314.816406 C 362.320312 314.816406 363.3125 315.808594 363.3125 317.039062 C 363.3125 318.269531 362.320312 319.257812 361.09375 319.257812 C 359.871094 319.257812 358.871094 318.265625 358.871094 317.039062 C 358.871094 315.8125 359.863281 314.816406 361.09375 314.816406 Z M 361.09375 314.605469 C 359.753906 314.605469 358.664062 315.6875 358.660156 317.023438 L 358.660156 317.050781 C 358.664062 318.386719 359.753906 319.46875 361.09375 319.46875 C 362.4375 319.46875 363.523438 318.378906 363.523438 317.039062 C 363.523438 315.699219 362.4375 314.605469 361.09375 314.605469 Z M 361.09375 314.605469 " clip-rule="nonzero"/></clipPath><clipPath id="cca9c71618"><path d="M 188 163 L 315.15625 163 L 315.15625 244.046875 L 188 244.046875 Z M 188 163 " clip-rule="nonzero"/></clipPath></defs><rect x="-37.5" width="450" fill="#ffffff" y="-37.499999" height="449.999989" fill-opacity="1"/><rect x="-37.5" width="450" fill="#ffffff" y="-37.499999" height="449.999989" fill-opacity="1"/><g clip-path="url(#74c22a8137)"><g clip-path="url(#6c223a7e1d)"><path fill="#000000" d="M 358.660156 314.605469 L 363.527344 314.605469 L 363.527344 319.472656 L 358.660156 319.472656 Z M 358.660156 314.605469 " fill-opacity="1" fill-rule="nonzero"/></g></g><path fill="#9f66ca" d="M 105.328125 160.09375 C 106.546875 159.828125 107.792969 159.871094 109.035156 159.890625 C 109.441406 159.890625 109.84375 159.886719 110.246094 159.882812 C 111.089844 159.878906 111.933594 159.886719 112.777344 159.898438 C 113.859375 159.914062 114.933594 159.902344 116.015625 159.886719 C 116.847656 159.878906 117.679688 159.882812 118.511719 159.886719 C 118.910156 159.890625 119.308594 159.886719 119.707031 159.882812 C 122.210938 159.851562 122.210938 159.851562 123.21875 160.253906 C 124.0625 161.078125 124.445312 161.894531 124.898438 162.988281 C 125.144531 163.417969 125.394531 163.847656 125.652344 164.273438 C 125.898438 164.707031 126.148438 165.140625 126.398438 165.574219 L 127.21875 167 C 127.96875 168.304688 127.96875 168.304688 128.265625 168.820312 C 128.734375 169.636719 129.207031 170.457031 129.683594 171.277344 L 130.054688 171.925781 L 130.402344 172.523438 L 130.703125 173.050781 C 130.976562 173.46875 131.257812 173.789062 131.625 174.128906 L 131.851562 173.71875 C 133.296875 171.117188 134.753906 168.53125 136.277344 165.976562 L 136.582031 165.464844 L 136.902344 164.953125 C 137.21875 164.390625 137.476562 163.859375 137.726562 163.269531 C 138.230469 162.167969 138.746094 161.113281 139.613281 160.253906 C 140.925781 159.589844 142.464844 159.789062 143.886719 159.863281 C 144.296875 159.871094 144.710938 159.878906 145.121094 159.882812 C 146.199219 159.894531 147.273438 159.933594 148.347656 159.980469 C 149.449219 160.019531 150.550781 160.039062 151.648438 160.058594 C 153.804688 160.101562 155.957031 160.167969 158.113281 160.253906 L 158.398438 160.757812 C 158.910156 161.65625 159.421875 162.550781 159.933594 163.449219 C 160.894531 165.132812 161.863281 166.8125 162.855469 168.476562 C 163.976562 170.367188 165.078125 172.265625 166.171875 174.167969 C 167.054688 175.699219 167.941406 177.226562 168.832031 178.753906 C 170.25 181.179688 171.65625 183.609375 173.058594 186.046875 C 173.460938 186.746094 173.863281 187.445312 174.269531 188.144531 C 175.476562 190.230469 176.675781 192.320312 177.871094 194.414062 C 178.839844 196.109375 179.8125 197.804688 180.789062 199.496094 L 181.183594 200.179688 L 181.5625 200.839844 L 181.925781 201.472656 C 182.164062 201.878906 182.414062 202.28125 182.667969 202.675781 L 183.023438 203.230469 L 183.34375 203.714844 C 183.546875 204.1875 183.546875 204.1875 183.5 204.726562 C 183.261719 205.476562 182.863281 206.113281 182.457031 206.773438 L 181.878906 207.738281 L 181.5625 208.261719 C 180.976562 209.242188 180.402344 210.230469 179.828125 211.214844 L 179.460938 211.847656 C 178.699219 213.152344 177.941406 214.460938 177.191406 215.769531 C 176.835938 216.382812 176.480469 217 176.128906 217.617188 L 175.746094 218.28125 L 175.40625 218.875 C 175.140625 219.320312 175.140625 219.320312 174.929688 219.53125 C 174.402344 219.578125 173.878906 219.613281 173.351562 219.636719 C 173.183594 219.644531 173.019531 219.652344 172.847656 219.660156 C 171.3125 219.730469 169.777344 219.777344 168.238281 219.8125 C 167.207031 219.835938 166.175781 219.867188 165.148438 219.925781 C 159.371094 220.230469 159.371094 220.230469 157.480469 219.53125 C 156.570312 218.875 156.0625 218.15625 155.554688 217.164062 C 155.257812 216.488281 154.988281 215.796875 154.753906 215.097656 C 154.472656 214.300781 154.097656 213.660156 153.652344 212.945312 L 152.9375 211.703125 C 151.605469 209.390625 150.246094 207.097656 148.863281 204.816406 C 147.730469 206.636719 146.632812 208.480469 145.578125 210.347656 C 145.285156 210.863281 144.992188 211.375 144.699219 211.890625 L 144.480469 212.28125 C 143.71875 213.609375 142.949219 214.9375 142.175781 216.261719 L 141.804688 216.894531 C 141.496094 217.421875 141.1875 217.953125 140.875 218.480469 L 140.644531 219.027344 L 140.246094 219.53125 C 139.65625 219.648438 139.191406 219.691406 138.597656 219.695312 L 138.089844 219.707031 C 137.535156 219.722656 136.980469 219.726562 136.425781 219.730469 L 135.265625 219.746094 C 134.457031 219.753906 133.644531 219.757812 132.835938 219.761719 C 131.800781 219.765625 130.765625 219.785156 129.726562 219.8125 C 128.929688 219.828125 128.132812 219.832031 127.332031 219.832031 C 126.949219 219.835938 126.570312 219.839844 126.1875 219.851562 C 123.773438 219.921875 123.773438 219.921875 122.796875 219.53125 C 121.960938 218.707031 121.574219 217.882812 121.117188 216.800781 C 120.863281 216.332031 120.59375 215.878906 120.320312 215.421875 C 120.050781 214.949219 119.78125 214.476562 119.511719 214 C 119.148438 213.355469 118.78125 212.714844 118.414062 212.070312 C 117.652344 210.738281 116.886719 209.410156 116.109375 208.089844 L 115.742188 207.457031 C 115.226562 206.574219 114.707031 205.695312 114.179688 204.816406 C 113.230469 206.183594 112.394531 207.597656 111.578125 209.042969 C 111.214844 209.691406 110.847656 210.335938 110.480469 210.980469 L 110.25 211.378906 C 109.421875 212.835938 108.570312 214.28125 107.714844 215.722656 L 107.289062 216.441406 C 106.542969 217.699219 106.542969 217.699219 106.191406 218.269531 L 105.851562 218.925781 L 105.351562 219.53125 C 104.742188 219.664062 104.304688 219.710938 103.691406 219.707031 L 103.191406 219.714844 C 102.640625 219.722656 102.089844 219.722656 101.542969 219.722656 C 101.160156 219.722656 100.777344 219.726562 100.394531 219.730469 C 99.59375 219.734375 98.792969 219.734375 97.992188 219.730469 C 96.964844 219.726562 95.941406 219.738281 94.917969 219.753906 C 94.125 219.761719 93.335938 219.761719 92.546875 219.761719 C 92.167969 219.761719 91.792969 219.765625 91.414062 219.769531 C 90.285156 219.789062 89.21875 219.777344 88.113281 219.53125 C 87.574219 219.101562 87.335938 218.757812 87.042969 218.132812 L 86.851562 217.640625 L 86.449219 216.964844 L 86.097656 216.34375 L 85.695312 215.636719 L 85.488281 215.269531 C 85.121094 214.621094 84.753906 213.972656 84.386719 213.328125 L 84.160156 212.929688 C 83.40625 211.605469 82.640625 210.285156 81.875 208.96875 L 81.515625 208.351562 L 81.175781 207.769531 L 80.855469 207.222656 C 80.484375 206.605469 80.089844 206.007812 79.679688 205.417969 C 79.496094 205.027344 79.496094 205.027344 79.433594 204.519531 C 79.507812 203.878906 79.695312 203.511719 80.027344 202.960938 L 80.382812 202.367188 C 80.511719 202.15625 80.636719 201.945312 80.769531 201.730469 C 81.042969 201.273438 81.3125 200.820312 81.582031 200.367188 L 82.011719 199.652344 C 82.703125 198.484375 83.378906 197.308594 84.054688 196.132812 C 84.425781 195.492188 84.792969 194.851562 85.1875 194.226562 C 85.53125 193.640625 85.710938 193.074219 85.894531 192.421875 C 86.226562 191.425781 86.59375 190.609375 87.324219 189.839844 C 88.382812 189.167969 89.539062 189.128906 90.769531 189.0625 C 92.53125 189.007812 94.289062 189.042969 96.054688 189.101562 C 97.078125 189.128906 98.101562 189.132812 99.125 189.140625 C 101.132812 189.160156 103.136719 189.203125 105.140625 189.261719 L 103.332031 186.09375 C 102.304688 184.292969 101.269531 182.5 100.226562 180.710938 L 99.847656 180.054688 C 99.300781 179.117188 98.746094 178.1875 98.167969 177.269531 L 97.863281 176.773438 C 97.675781 176.472656 97.488281 176.175781 97.292969 175.882812 C 97.046875 175.484375 97.046875 175.484375 96.734375 174.757812 C 96.894531 173.5 97.808594 172.316406 98.453125 171.238281 L 99.253906 169.882812 L 99.671875 169.171875 C 100.503906 167.761719 101.316406 166.335938 102.128906 164.914062 C 102.367188 164.5 102.609375 164.085938 102.855469 163.679688 C 103.261719 162.996094 103.261719 162.996094 103.546875 162.277344 C 104.390625 160.46875 104.390625 160.46875 105.328125 160.09375 " fill-opacity="1" fill-rule="nonzero"/><path fill="#1836b2" d="M 140.007812 160.113281 C 141.261719 159.890625 142.539062 159.964844 143.804688 160.007812 C 144.21875 160.011719 144.628906 160.015625 145.042969 160.019531 C 146.125 160.027344 147.207031 160.054688 148.289062 160.082031 C 149.398438 160.105469 150.503906 160.117188 151.609375 160.128906 C 153.777344 160.15625 155.945312 160.199219 158.113281 160.253906 L 158.398438 160.757812 C 158.910156 161.65625 159.421875 162.550781 159.933594 163.449219 C 160.894531 165.132812 161.863281 166.8125 162.855469 168.476562 C 163.976562 170.367188 165.078125 172.265625 166.171875 174.167969 C 167.054688 175.699219 167.941406 177.226562 168.832031 178.753906 C 170.25 181.179688 171.65625 183.609375 173.058594 186.046875 C 173.460938 186.746094 173.863281 187.445312 174.269531 188.144531 C 175.476562 190.230469 176.675781 192.320312 177.871094 194.414062 C 178.839844 196.109375 179.8125 197.804688 180.789062 199.496094 L 181.183594 200.179688 L 181.5625 200.839844 L 181.925781 201.472656 C 182.164062 201.878906 182.414062 202.28125 182.667969 202.675781 L 183.023438 203.230469 L 183.34375 203.714844 C 183.546875 204.1875 183.546875 204.1875 183.5 204.726562 C 183.261719 205.476562 182.863281 206.113281 182.457031 206.773438 L 181.878906 207.738281 L 181.5625 208.261719 C 180.976562 209.242188 180.402344 210.230469 179.828125 211.214844 L 179.460938 211.847656 C 178.773438 213.027344 178.089844 214.207031 177.410156 215.386719 L 177.191406 215.769531 C 176.835938 216.386719 176.480469 217 176.128906 217.617188 L 175.746094 218.28125 L 175.40625 218.875 C 175.140625 219.320312 175.140625 219.320312 174.929688 219.53125 C 174.402344 219.578125 173.878906 219.613281 173.351562 219.636719 C 173.183594 219.644531 173.019531 219.652344 172.847656 219.660156 C 171.3125 219.730469 169.777344 219.777344 168.238281 219.8125 C 167.207031 219.835938 166.175781 219.867188 165.148438 219.925781 C 159.371094 220.230469 159.371094 220.230469 157.480469 219.53125 C 156.570312 218.871094 156.0625 218.15625 155.554688 217.160156 C 155.253906 216.484375 154.988281 215.792969 154.753906 215.09375 C 154.476562 214.308594 154.105469 213.679688 153.664062 212.976562 L 152.960938 211.753906 C 151.957031 210.007812 150.945312 208.265625 149.925781 206.527344 C 148.789062 204.578125 147.664062 202.621094 146.546875 200.65625 C 145.453125 198.742188 144.347656 196.828125 143.234375 194.925781 C 142.335938 193.390625 141.445312 191.851562 140.558594 190.3125 C 139.0625 187.714844 137.554688 185.125 136.039062 182.535156 L 135.261719 181.203125 L 134.871094 180.539062 C 134.621094 180.105469 134.371094 179.671875 134.121094 179.238281 C 133.605469 178.339844 133.09375 177.460938 132.480469 176.625 C 132.003906 175.953125 131.621094 175.355469 131.417969 174.546875 C 131.699219 173.5625 132.21875 172.816406 132.820312 172.003906 C 133.296875 171.320312 133.675781 170.582031 134.070312 169.84375 C 135.261719 167.683594 136.484375 165.53125 137.777344 163.429688 C 138.15625 162.792969 138.15625 162.792969 138.386719 162.113281 C 139.082031 160.441406 139.082031 160.441406 140.007812 160.113281 " fill-opacity="1" fill-rule="nonzero"/><path fill="#86c6ec" d="M 90.769531 189.046875 C 92.539062 188.984375 94.304688 189.027344 96.078125 189.089844 C 96.898438 189.109375 97.71875 189.109375 98.542969 189.109375 C 99.335938 189.113281 100.128906 189.121094 100.921875 189.136719 C 101.300781 189.144531 101.679688 189.148438 102.058594 189.152344 C 103.183594 189.160156 104.253906 189.199219 105.351562 189.472656 C 106.019531 190.015625 106.300781 190.570312 106.613281 191.363281 L 107.015625 192.03125 L 107.359375 192.644531 L 107.757812 193.347656 L 108.175781 194.085938 L 108.839844 195.253906 L 109.292969 196.050781 C 110.214844 197.675781 111.148438 199.289062 112.085938 200.90625 C 112.324219 201.320312 112.5625 201.734375 112.796875 202.152344 C 113.117188 202.714844 113.117188 202.714844 113.492188 203.210938 C 113.828125 203.6875 114.046875 204.039062 114.179688 204.605469 C 113.945312 205.480469 113.472656 206.164062 112.972656 206.90625 C 112.691406 207.355469 112.410156 207.800781 112.128906 208.25 L 111.679688 208.945312 C 110.960938 210.089844 110.300781 211.265625 109.632812 212.4375 C 108.652344 214.148438 107.652344 215.855469 106.636719 217.546875 L 106.316406 218.085938 C 105.589844 219.292969 105.589844 219.292969 105.351562 219.53125 C 104.820312 219.5625 104.296875 219.578125 103.765625 219.585938 L 103.261719 219.59375 C 101.726562 219.621094 100.191406 219.636719 98.65625 219.648438 C 97.625 219.65625 96.59375 219.667969 95.5625 219.6875 C 94.566406 219.707031 93.570312 219.714844 92.570312 219.71875 C 92.191406 219.722656 91.8125 219.730469 91.433594 219.738281 C 90.300781 219.765625 89.226562 219.769531 88.113281 219.53125 C 87.570312 219.101562 87.335938 218.757812 87.042969 218.136719 L 86.851562 217.640625 L 86.449219 216.964844 L 86.097656 216.34375 L 85.695312 215.636719 L 85.488281 215.269531 C 85.121094 214.621094 84.753906 213.972656 84.386719 213.328125 L 84.160156 212.929688 C 83.40625 211.605469 82.640625 210.285156 81.875 208.96875 L 81.515625 208.351562 L 81.175781 207.769531 C 81.070312 207.589844 80.964844 207.410156 80.855469 207.222656 C 80.484375 206.605469 80.089844 206.007812 79.679688 205.417969 C 79.496094 205.027344 79.496094 205.027344 79.433594 204.519531 C 79.507812 203.878906 79.695312 203.511719 80.027344 202.960938 C 80.144531 202.765625 80.261719 202.570312 80.382812 202.367188 L 80.769531 201.730469 C 81.042969 201.273438 81.3125 200.820312 81.582031 200.367188 L 82.011719 199.652344 C 82.703125 198.484375 83.378906 197.308594 84.054688 196.132812 C 84.425781 195.492188 84.792969 194.851562 85.1875 194.226562 C 85.53125 193.640625 85.710938 193.078125 85.894531 192.425781 C 86.222656 191.425781 86.59375 190.609375 87.324219 189.839844 C 88.382812 189.167969 89.539062 189.117188 90.769531 189.046875 " fill-opacity="1" fill-rule="nonzero"/><g clip-path="url(#cca9c71618)"><path fill="#000000" d="M 190.90625 194.097656 L 197 194.097656 L 199.3125 205.449219 C 199.933594 202.351562 200.542969 199.269531 201.074219 196.160156 L 201.203125 195.429688 L 201.3125 194.789062 L 201.414062 194.308594 L 201.625 194.097656 C 202.058594 194.074219 202.492188 194.070312 202.925781 194.070312 L 203.726562 194.066406 L 204.144531 194.070312 C 204.566406 194.070312 204.988281 194.070312 205.410156 194.066406 L 206.210938 194.070312 L 206.949219 194.070312 L 207.511719 194.097656 L 207.722656 194.308594 C 207.777344 194.808594 207.824219 195.304688 207.859375 195.808594 L 207.898438 196.285156 C 207.9375 196.808594 207.976562 197.332031 208.015625 197.855469 L 208.101562 198.945312 C 208.160156 199.707031 208.21875 200.472656 208.277344 201.234375 C 208.347656 202.210938 208.425781 203.1875 208.5 204.164062 C 208.558594 204.914062 208.617188 205.664062 208.671875 206.417969 L 208.753906 207.496094 C 208.792969 208 208.832031 208.503906 208.871094 209.011719 C 208.882812 209.15625 208.894531 209.304688 208.90625 209.457031 C 208.976562 210.441406 208.980469 211.390625 208.980469 212.386719 L 204.148438 212.386719 L 203.726562 200.402344 L 201.625 210.492188 L 197 210.492188 C 196.746094 209.730469 196.523438 209.050781 196.359375 208.277344 L 196.242188 207.742188 L 196.125 207.175781 L 196 206.589844 C 195.867188 205.972656 195.738281 205.355469 195.609375 204.738281 L 195.339844 203.480469 C 195.121094 202.453125 194.90625 201.429688 194.6875 200.402344 L 194.683594 200.78125 C 194.660156 202.09375 194.636719 203.402344 194.609375 204.710938 C 194.601562 205.199219 194.59375 205.6875 194.582031 206.175781 C 194.570312 206.878906 194.558594 207.582031 194.542969 208.285156 L 194.535156 208.941406 L 194.519531 209.566406 L 194.511719 210.109375 C 194.46875 210.871094 194.363281 211.628906 194.269531 212.386719 L 189.644531 212.386719 C 189.621094 210.265625 189.707031 208.175781 189.867188 206.066406 L 189.933594 205.125 C 189.984375 204.472656 190.03125 203.820312 190.082031 203.171875 C 190.144531 202.339844 190.207031 201.503906 190.265625 200.671875 C 190.3125 200.027344 190.359375 199.382812 190.410156 198.738281 C 190.433594 198.429688 190.453125 198.125 190.476562 197.816406 C 190.507812 197.386719 190.542969 196.960938 190.574219 196.53125 L 190.628906 195.796875 C 190.695312 195.148438 190.695312 195.148438 190.90625 194.097656 M 267.417969 197.878906 C 268.265625 198.175781 268.921875 198.519531 269.519531 199.195312 L 269.730469 199.5625 C 270.320312 199.28125 270.855469 198.964844 271.398438 198.601562 C 272.296875 198.039062 272.960938 197.90625 274.015625 197.828125 C 274.90625 197.890625 275.464844 198.078125 276.246094 198.511719 C 276.808594 199.070312 277.203125 199.5625 277.535156 200.28125 C 277.808594 201.402344 277.769531 202.492188 277.761719 203.640625 L 277.757812 204.398438 C 277.757812 205.195312 277.75 205.992188 277.746094 206.789062 C 277.742188 207.328125 277.742188 207.871094 277.738281 208.410156 C 277.734375 209.734375 277.726562 211.058594 277.71875 212.386719 L 273.09375 212.386719 L 273.054688 210.253906 C 273.042969 209.574219 273.03125 208.890625 273.015625 208.210938 C 273.007812 207.738281 273 207.261719 272.992188 206.789062 C 272.976562 206.109375 272.964844 205.429688 272.949219 204.75 L 272.941406 204.105469 L 272.929688 203.507812 L 272.917969 202.980469 C 272.886719 202.507812 272.84375 202.109375 272.675781 201.664062 L 272.042969 201.453125 C 271.492188 201.703125 271.492188 201.703125 270.992188 202.085938 C 270.546875 202.652344 270.546875 202.652344 270.515625 203.160156 L 270.503906 203.675781 L 270.492188 204.261719 L 270.484375 204.890625 L 270.472656 205.539062 C 270.460938 206.222656 270.449219 206.90625 270.441406 207.589844 C 270.433594 208.050781 270.425781 208.515625 270.417969 208.980469 C 270.394531 210.113281 270.378906 211.25 270.363281 212.386719 L 265.527344 212.386719 L 265.316406 201.453125 L 264.054688 201.664062 C 263.582031 202.0625 263.28125 202.375 263.003906 202.925781 C 262.980469 203.230469 262.96875 203.535156 262.960938 203.839844 L 262.949219 204.414062 L 262.9375 205.035156 L 262.925781 205.671875 C 262.910156 206.339844 262.898438 207.011719 262.886719 207.679688 L 262.859375 209.042969 C 262.835938 210.15625 262.816406 211.269531 262.792969 212.386719 L 258.171875 212.386719 C 258.164062 210.578125 258.160156 208.773438 258.160156 206.96875 C 258.160156 206.132812 258.15625 205.292969 258.15625 204.453125 C 258.152344 203.644531 258.152344 202.839844 258.148438 202.03125 C 258.148438 201.722656 258.148438 201.410156 258.148438 201.101562 C 258.148438 200.671875 258.144531 200.238281 258.144531 199.808594 L 258.144531 199.0625 L 258.171875 198.511719 L 258.378906 198.300781 C 258.664062 198.285156 258.945312 198.277344 259.230469 198.28125 L 259.742188 198.28125 L 260.285156 198.289062 L 260.828125 198.289062 C 261.273438 198.292969 261.71875 198.296875 262.164062 198.300781 L 262.792969 199.5625 L 263.117188 199.300781 C 264.457031 198.253906 265.664062 197.613281 267.417969 197.878906 M 230.421875 167.402344 L 230.421875 170.765625 L 233.578125 170.765625 C 233.390625 173.179688 233.390625 173.179688 233.15625 174.128906 L 230.421875 174.128906 C 230.449219 175.042969 230.472656 175.960938 230.5 176.878906 C 230.511719 177.1875 230.519531 177.5 230.527344 177.8125 C 230.539062 178.261719 230.554688 178.707031 230.566406 179.15625 L 230.589844 179.972656 C 230.605469 180.648438 230.605469 180.648438 230.84375 181.273438 C 231.75 181.464844 232.210938 181.464844 233.15625 181.273438 L 234.628906 184.21875 C 232.9375 185.089844 231.804688 185.332031 229.882812 185.3125 C 228.964844 185.257812 228.472656 185.121094 227.691406 184.636719 C 226.882812 183.957031 226.421875 183.296875 226.007812 182.324219 C 225.726562 181.5 225.773438 180.65625 225.777344 179.792969 L 225.777344 179.300781 C 225.78125 178.785156 225.78125 178.269531 225.785156 177.753906 C 225.785156 177.402344 225.789062 177.050781 225.789062 176.703125 C 225.789062 175.84375 225.792969 174.984375 225.796875 174.128906 L 223.90625 174.128906 L 223.695312 172.867188 L 222.226562 174.757812 L 221.371094 174.441406 C 220.5 174.15625 219.785156 174.019531 218.863281 174.128906 C 218.265625 174.320312 218.265625 174.320312 217.8125 174.757812 C 217.257812 175.824219 217.082031 176.707031 217.101562 177.910156 L 217.09375 178.339844 C 217.101562 179.410156 217.332031 180.128906 217.8125 181.0625 C 218.152344 181.402344 218.152344 181.402344 218.652344 181.484375 C 220 181.597656 220.960938 181.328125 222.226562 180.855469 L 223.90625 183.375 L 223.488281 184.21875 C 223.0625 184.476562 223.0625 184.476562 222.566406 184.675781 L 222.074219 184.882812 C 220.578125 185.429688 218.964844 185.4375 217.390625 185.269531 C 216.035156 184.9375 214.949219 184.375 213.921875 183.429688 C 212.964844 182.378906 212.441406 181.179688 212.136719 179.804688 C 211.902344 175.976562 211.902344 175.976562 212.671875 174.222656 C 213.382812 173.019531 214.242188 172.007812 215.421875 171.246094 C 216.804688 170.527344 218.023438 170.289062 219.574219 170.3125 C 220.855469 170.386719 221.878906 170.636719 222.972656 171.316406 C 223.214844 171.480469 223.457031 171.644531 223.695312 171.816406 L 224.117188 170.765625 L 225.796875 170.765625 L 225.796875 167.820312 C 226.292969 167.75 226.789062 167.679688 227.285156 167.609375 C 227.421875 167.589844 227.558594 167.570312 227.703125 167.550781 C 228.632812 167.421875 229.46875 167.402344 230.421875 167.402344 M 233.367188 192.414062 L 233.578125 199.351562 L 235.046875 198.300781 C 236.097656 197.898438 237.085938 197.742188 238.199219 197.878906 C 238.902344 198.09375 239.4375 198.296875 239.984375 198.796875 C 240.535156 199.425781 240.882812 200.035156 241.144531 200.824219 C 241.195312 201.390625 241.195312 201.390625 241.191406 202.003906 L 241.191406 202.707031 L 241.183594 203.457031 L 241.183594 204.226562 C 241.179688 205.042969 241.175781 205.855469 241.171875 206.667969 C 241.167969 207.222656 241.164062 207.773438 241.164062 208.328125 C 241.160156 209.679688 241.152344 211.03125 241.144531 212.386719 L 236.519531 212.386719 L 236.480469 210.148438 C 236.46875 209.433594 236.453125 208.71875 236.441406 208.007812 C 236.433594 207.511719 236.421875 207.015625 236.414062 206.515625 C 236.402344 205.804688 236.390625 205.09375 236.375 204.378906 L 236.363281 203.703125 L 236.351562 203.078125 L 236.34375 202.527344 C 236.335938 202.074219 236.335938 202.074219 236.097656 201.664062 C 235.726562 201.464844 235.726562 201.464844 235.257812 201.453125 C 234.59375 201.777344 234.046875 202.144531 233.578125 202.714844 C 233.476562 203.167969 233.476562 203.167969 233.484375 203.675781 L 233.472656 204.261719 L 233.46875 204.890625 L 233.457031 205.539062 C 233.445312 206.222656 233.4375 206.90625 233.433594 207.589844 C 233.425781 208.050781 233.417969 208.515625 233.410156 208.980469 C 233.390625 210.113281 233.378906 211.25 233.367188 212.386719 L 228.742188 212.386719 L 228.742188 192.835938 C 232.105469 192.414062 232.105469 192.414062 233.367188 192.414062 M 188.382812 166.558594 L 193.425781 166.558594 C 193.753906 167.378906 193.964844 168.058594 194.144531 168.90625 L 194.3125 169.683594 L 194.484375 170.519531 L 194.667969 171.375 C 194.828125 172.125 194.984375 172.878906 195.144531 173.628906 C 195.304688 174.394531 195.464844 175.160156 195.628906 175.925781 C 195.945312 177.429688 196.265625 178.929688 196.582031 180.433594 C 197.015625 178.75 197.398438 177.050781 197.726562 175.34375 L 197.863281 174.636719 C 198.003906 173.902344 198.148438 173.167969 198.289062 172.433594 C 198.429688 171.691406 198.574219 170.949219 198.71875 170.207031 C 198.808594 169.75 198.894531 169.292969 198.984375 168.832031 L 199.105469 168.207031 L 199.210938 167.65625 C 199.3125 167.191406 199.3125 167.191406 199.523438 166.558594 L 204.359375 166.558594 C 204.21875 167.808594 204.066406 168.914062 203.742188 170.105469 L 203.617188 170.566406 C 203.484375 171.066406 203.351562 171.566406 203.214844 172.0625 C 203.121094 172.414062 203.027344 172.761719 202.933594 173.109375 C 202.691406 174.023438 202.445312 174.941406 202.195312 175.851562 C 201.996094 176.601562 201.792969 177.347656 201.59375 178.097656 C 201.179688 179.640625 200.765625 181.183594 200.351562 182.730469 L 200.234375 183.160156 C 200.082031 183.726562 199.917969 184.289062 199.734375 184.847656 L 193.425781 184.847656 C 192.25 180.742188 191.078125 176.632812 189.921875 172.515625 C 189.789062 172.039062 189.65625 171.5625 189.519531 171.085938 C 189.332031 170.410156 189.140625 169.738281 188.953125 169.0625 L 188.777344 168.441406 L 188.617188 167.875 L 188.480469 167.378906 C 188.382812 166.980469 188.382812 166.980469 188.382812 166.558594 M 289.402344 198.292969 C 290.574219 198.796875 291.617188 199.453125 292.40625 200.46875 C 293.289062 201.863281 293.59375 203.359375 293.695312 204.988281 C 293.695312 206.617188 293.507812 208.269531 292.683594 209.699219 C 291.945312 210.804688 291.296875 211.53125 290.09375 212.148438 C 288.523438 212.886719 287 212.921875 285.285156 212.84375 C 283.996094 212.726562 282.933594 212.207031 281.859375 211.519531 C 280.894531 210.488281 280.242188 209.363281 279.742188 208.050781 C 279.40625 206.339844 279.402344 204.304688 279.847656 202.625 C 280.292969 201.386719 280.949219 200.328125 281.878906 199.398438 C 282.796875 198.632812 283.738281 198.25 284.894531 197.980469 C 286.457031 197.722656 287.898438 197.78125 289.402344 198.292969 M 285.550781 201.453125 C 285.050781 201.898438 284.824219 202.296875 284.574219 202.910156 C 284.335938 203.710938 284.355469 204.511719 284.367188 205.34375 L 284.359375 205.863281 C 284.367188 207.003906 284.546875 207.800781 285.078125 208.8125 C 285.421875 209.246094 285.421875 209.246094 285.917969 209.441406 C 286.644531 209.582031 286.644531 209.582031 287.390625 209.441406 C 288.019531 209.058594 288.019531 209.058594 288.441406 208.390625 C 288.980469 206.957031 288.984375 205.386719 288.792969 203.878906 C 288.652344 203.121094 288.464844 202.550781 288.085938 201.875 C 287.605469 201.402344 287.605469 201.402344 286.875 201.242188 C 286.140625 201.203125 286.140625 201.203125 285.550781 201.453125 M 244.804688 170.753906 C 245.894531 171.195312 246.691406 171.886719 247.503906 172.722656 C 248.359375 174.039062 248.859375 175.355469 248.972656 176.925781 C 249.007812 178.761719 248.894531 180.433594 248.082031 182.117188 C 247.324219 183.21875 246.476562 184.132812 245.28125 184.757812 C 243.605469 185.410156 241.875 185.445312 240.09375 185.269531 C 238.917969 185 237.996094 184.574219 237.070312 183.800781 C 236.21875 182.917969 235.597656 181.972656 235.191406 180.8125 C 234.703125 178.8125 234.699219 176.738281 235.257812 174.757812 C 235.773438 173.390625 236.609375 172.464844 237.722656 171.535156 C 239.785156 170.027344 242.4375 170.039062 244.804688 170.753906 M 241.023438 173.957031 C 240.441406 174.390625 240.191406 174.726562 239.882812 175.390625 C 239.464844 176.984375 239.523438 178.851562 239.933594 180.445312 C 240.097656 180.917969 240.097656 180.917969 240.550781 181.496094 C 241.128906 181.957031 241.128906 181.957031 241.878906 182.023438 C 242.621094 181.949219 242.621094 181.949219 243.207031 181.5625 C 243.753906 180.96875 243.882812 180.582031 244.085938 179.804688 C 244.148438 179.179688 244.15625 178.5625 244.152344 177.9375 L 244.164062 177.449219 C 244.164062 176.277344 243.945312 175.40625 243.457031 174.335938 C 242.972656 173.894531 242.972656 173.894531 242.40625 173.707031 C 241.59375 173.648438 241.59375 173.648438 241.027344 173.957031 M 253.125 198.511719 C 253.96875 199.019531 254.476562 199.578125 254.992188 200.417969 C 255.414062 201.519531 255.46875 202.5625 255.480469 203.734375 L 255.5 204.699219 C 255.507812 205.199219 255.515625 205.703125 255.523438 206.203125 C 255.527344 206.691406 255.539062 207.179688 255.546875 207.664062 L 255.550781 208.121094 C 255.554688 208.589844 255.554688 208.589844 255.648438 209.230469 L 256.277344 209.652344 C 256.179688 210.058594 256.078125 210.46875 255.976562 210.875 L 255.804688 211.5625 C 255.699219 211.980469 255.574219 212.394531 255.4375 212.804688 C 254.414062 212.75 253.714844 212.628906 252.835938 212.082031 C 252.390625 211.785156 252.035156 211.503906 251.652344 211.125 L 251.375 211.386719 L 250.996094 211.726562 L 250.628906 212.066406 C 249.886719 212.59375 249.15625 212.78125 248.257812 212.875 C 246.199219 212.902344 246.199219 212.902344 245.253906 212.476562 C 244.421875 211.980469 243.785156 211.296875 243.246094 210.492188 C 242.878906 209.398438 242.945312 208.273438 243.035156 207.128906 C 243.195312 206.453125 243.425781 205.976562 243.875 205.449219 C 244.757812 204.675781 245.753906 204.054688 246.917969 203.816406 C 248.210938 203.695312 249.515625 203.738281 250.8125 203.765625 C 250.769531 203.460938 250.722656 203.152344 250.667969 202.847656 L 250.585938 202.328125 L 250.394531 201.875 C 249.800781 201.523438 249.390625 201.453125 248.699219 201.445312 C 247.402344 201.5625 246.179688 201.714844 244.925781 202.085938 C 244.78125 201.722656 244.636719 201.359375 244.492188 200.996094 L 244.25 200.382812 C 244.085938 199.773438 244.085938 199.773438 244.167969 199.171875 L 244.296875 198.722656 C 247.238281 197.875 250.179688 197.375 253.125 198.511719 M 248.054688 206.589844 C 247.636719 207.082031 247.636719 207.082031 247.5625 207.585938 C 247.527344 208.097656 247.542969 208.519531 247.660156 209.023438 C 248.082031 209.511719 248.082031 209.511719 248.710938 209.652344 C 249.429688 209.636719 249.851562 209.511719 250.472656 209.152344 C 250.855469 208.628906 250.855469 208.628906 250.863281 208.03125 C 250.867188 207.449219 250.847656 206.871094 250.8125 206.289062 C 249.8125 206.21875 248.980469 206.164062 248.054688 206.589844 M 223.488281 194.9375 L 223.488281 198.300781 L 226.640625 198.300781 C 226.457031 200.71875 226.457031 200.71875 226.21875 201.664062 L 223.488281 201.664062 C 223.511719 202.582031 223.539062 203.496094 223.566406 204.414062 C 223.574219 204.726562 223.582031 205.039062 223.589844 205.347656 C 223.601562 205.796875 223.617188 206.246094 223.628906 206.695312 L 223.652344 207.511719 C 223.667969 208.183594 223.667969 208.183594 223.90625 208.8125 C 224.8125 209 225.273438 209 226.21875 208.8125 L 227.691406 211.753906 C 226 212.625 224.871094 212.867188 222.945312 212.851562 C 222.027344 212.792969 221.535156 212.65625 220.753906 212.175781 C 219.945312 211.492188 219.484375 210.832031 219.070312 209.863281 C 218.789062 209.035156 218.835938 208.191406 218.839844 207.332031 L 218.84375 206.839844 C 218.84375 206.324219 218.847656 205.808594 218.847656 205.289062 C 218.851562 204.941406 218.851562 204.589844 218.851562 204.238281 C 218.855469 203.378906 218.859375 202.523438 218.863281 201.664062 L 216.96875 201.664062 C 216.964844 201.144531 216.960938 200.621094 216.957031 200.101562 L 216.953125 199.652344 C 216.949219 199.269531 216.960938 198.890625 216.96875 198.511719 L 217.179688 198.300781 C 217.742188 198.273438 218.300781 198.292969 218.863281 198.300781 L 218.863281 195.359375 C 219.355469 195.285156 219.851562 195.21875 220.347656 195.148438 C 220.484375 195.128906 220.621094 195.109375 220.765625 195.085938 C 221.695312 194.957031 222.53125 194.9375 223.488281 194.9375 M 260.273438 170.554688 L 260.484375 170.972656 C 260.453125 171.363281 260.453125 171.363281 260.371094 171.828125 L 260.289062 172.335938 L 260.195312 172.867188 L 260.105469 173.398438 C 259.882812 174.699219 259.882812 174.699219 259.640625 175.179688 L 259.265625 175.15625 C 258.507812 175.128906 257.882812 175.132812 257.160156 175.375 C 256.601562 175.902344 256.339844 176.363281 256.039062 177.0625 C 255.640625 178.460938 255.714844 179.949219 255.699219 181.394531 C 255.695312 181.730469 255.6875 182.0625 255.679688 182.398438 C 255.664062 183.214844 255.65625 184.03125 255.648438 184.847656 L 251.023438 184.847656 L 251.023438 170.765625 L 255.015625 170.765625 L 255.4375 172.65625 L 255.898438 172.183594 C 256.609375 171.488281 257.230469 170.90625 258.144531 170.488281 C 258.925781 170.316406 259.496094 170.371094 260.273438 170.554688 M 211.085938 198.300781 C 211.410156 198.28125 211.738281 198.273438 212.0625 198.273438 L 215.074219 198.273438 L 215.5 198.300781 L 215.707031 198.511719 C 215.730469 198.945312 215.734375 199.375 215.734375 199.808594 L 215.734375 200.21875 C 215.734375 200.667969 215.730469 201.117188 215.730469 201.566406 L 215.726562 202.5 C 215.726562 203.320312 215.726562 204.136719 215.722656 204.957031 C 215.722656 205.792969 215.71875 206.628906 215.71875 207.464844 C 215.714844 209.105469 215.714844 210.746094 215.707031 212.386719 L 210.875 212.386719 C 210.871094 210.578125 210.867188 208.773438 210.863281 206.96875 C 210.863281 206.132812 210.859375 205.292969 210.859375 204.453125 C 210.855469 203.644531 210.855469 202.839844 210.855469 202.03125 C 210.855469 201.722656 210.851562 201.410156 210.851562 201.101562 C 210.851562 200.671875 210.851562 200.238281 210.851562 199.808594 L 210.847656 199.0625 L 210.875 198.511719 Z M 205.410156 170.765625 L 210.035156 170.765625 L 210.035156 184.847656 L 205.410156 184.847656 Z M 212.660156 190.867188 C 214.226562 190.828125 214.226562 190.828125 214.871094 191.164062 C 215.320312 191.535156 215.660156 191.894531 215.917969 192.414062 C 215.996094 193.054688 215.996094 193.667969 215.917969 194.308594 C 215.582031 194.972656 215.292969 195.398438 214.710938 195.859375 C 213.980469 196.058594 213.300781 196.101562 212.554688 195.988281 C 211.847656 195.722656 211.269531 195.371094 210.78125 194.78125 C 210.601562 194.050781 210.546875 193.367188 210.664062 192.625 C 211.148438 191.722656 211.582031 191.027344 212.660156 190.867188 M 208.257812 163.320312 C 208.785156 163.410156 209.078125 163.515625 209.507812 163.828125 C 210.042969 164.472656 210.292969 164.894531 210.441406 165.707031 C 210.453125 166.140625 210.453125 166.140625 210.242188 166.929688 C 209.824219 167.609375 209.824219 167.609375 209.257812 168.125 C 208.644531 168.414062 208.355469 168.515625 207.707031 168.542969 C 206.878906 168.453125 206.878906 168.453125 206.289062 168.175781 C 205.878906 167.859375 205.53125 167.582031 205.199219 167.191406 C 205.011719 166.5625 204.96875 165.953125 204.988281 165.300781 C 205.238281 164.554688 205.476562 164.167969 206.050781 163.644531 C 206.8125 163.351562 207.445312 163.292969 208.257812 163.320312 M 325.4375 298.988281 L 325.855469 299.199219 L 325.644531 299.832031 L 326.066406 300.039062 L 325.644531 300.039062 L 325.4375 300.460938 Z M 324.175781 298.988281 L 324.386719 298.988281 L 324.386719 300.460938 L 324.175781 300.460938 Z M 325.226562 301.300781 L 326.488281 301.300781 L 326.488281 301.511719 L 325.226562 301.511719 Z M 326.066406 298.148438 L 326.699219 298.359375 Z M 325.015625 298.148438 L 325.644531 298.359375 Z M 326.488281 301.089844 L 326.90625 301.300781 Z M 324.804688 301.089844 L 325.226562 301.300781 Z M 324.804688 301.089844 " fill-opacity="1" fill-rule="nonzero"/></g></svg>