<?xml version="1.0" encoding="UTF-8" standalone="no"?>
<!-- Created with Inkscape (http://www.inkscape.org/) -->

<svg
   width="242.13855mm"
   height="83.547012mm"
   viewBox="0 0 242.13855 83.547012"
   version="1.1"
   id="svg5"
   inkscape:version="1.1.2 (0a00cf5339, 2022-02-04, custom)"
   sodipodi:docname="logo_no_bg.svg"
   xmlns:inkscape="http://www.inkscape.org/namespaces/inkscape"
   xmlns:sodipodi="http://sodipodi.sourceforge.net/DTD/sodipodi-0.dtd"
   xmlns="http://www.w3.org/2000/svg"
   xmlns:svg="http://www.w3.org/2000/svg">
  <sodipodi:namedview
     id="namedview7"
     pagecolor="#505050"
     bordercolor="#eeeeee"
     borderopacity="1"
     inkscape:pageshadow="0"
     inkscape:pageopacity="0"
     inkscape:pagecheckerboard="0"
     inkscape:document-units="mm"
     showgrid="false"
     inkscape:zoom="0.7346129"
     inkscape:cx="459.42564"
     inkscape:cy="139.52927"
     inkscape:window-width="1920"
     inkscape:window-height="971"
     inkscape:window-x="0"
     inkscape:window-y="27"
     inkscape:window-maximized="1"
     inkscape:current-layer="layer1"
     showguides="true"
     inkscape:guide-bbox="true"
     inkscape:snap-others="true"
     fit-margin-top="0"
     fit-margin-left="0"
     fit-margin-right="0"
     fit-margin-bottom="0" />
  <defs
     id="defs2" />
  <g
     inkscape:label="Layer 1"
     inkscape:groupmode="layer"
     id="layer1"
     transform="translate(-13.16424,-216.22808)">
    <g
       id="g52832">
      <path
         id="path44617"
         style="fill:#999999;fill-rule:evenodd;stroke:none;stroke-width:1.64642;stroke-miterlimit:4;stroke-dasharray:none;stroke-opacity:1"
         d="m 55.78395,219.87973 a 39.881169,39.880875 0 0 0 -39.88109,39.88068 39.881169,39.880875 0 0 0 39.88109,39.88108 39.881169,39.880875 0 0 0 0.0181,-8e-4 v 0.0396 h 79.80094 79.7799 v 0.0948 a 39.938174,39.900565 0 0 0 39.9199,-39.89962 39.938174,39.900565 0 0 0 -39.91985,-39.90046 h -79.7799 v -0.0948 H 55.8021 a 39.881169,39.880875 0 0 0 -0.0181,-4.1e-4 z" />
      <g
         id="g52818">
        <g
           id="g52800">
          <path
             id="path44619"
             style="fill:#deaa87;fill-rule:evenodd;stroke:none;stroke-width:1.64642;stroke-miterlimit:4;stroke-dasharray:none;stroke-opacity:1"
             d="m 53.04556,216.22808 a 39.881169,39.880875 0 0 0 -39.88132,39.88076 39.881169,39.880875 0 0 0 39.88132,39.88103 39.881169,39.880875 0 0 0 0.0182,-8e-4 v 0.0393 h 79.80059 V 216.22836 H 53.06371 a 39.881169,39.880875 0 0 0 -0.0182,-2.8e-4 z" />
          <g
             aria-label="K"
             id="text44623"
             style="font-size:48.3773px;line-height:1.25;fill:#483737;stroke-width:1.20943"
             transform="translate(0,2.5881744e-5)">
            <path
               d="m 96.259597,277.99473 q -1.209432,0 -2.515619,-0.67729 -1.25781,-0.6289 -2.467242,-1.49969 -1.161056,-0.87079 -2.031847,-1.59645 -4.450712,-3.72506 -8.466028,-7.98226 -4.015316,-4.2572 -8.272518,-8.22414 -1.596451,1.69321 -3.144524,3.43479 -1.499697,1.74158 -2.999393,3.53154 -0.677282,0.77404 -1.354564,1.64483 -0.628905,0.82241 -1.306188,1.64483 -0.145131,0.14513 -0.338641,0.14513 -0.145132,0 -0.338641,-0.0967 -0.193509,-0.14514 -0.193509,-0.33865 0,-0.14513 0.774037,-1.16105 0.822414,-1.01592 2.031846,-2.46724 1.25781,-1.45132 2.51562,-2.95102 1.306187,-1.4997 2.273733,-2.61237 1.015923,-1.11268 1.306187,-1.45132 l -0.677282,-0.62891 q -2.225356,2.85426 -4.934485,5.66015 -2.709128,2.80588 -5.853653,5.12799 -3.144524,2.27373 -6.676067,3.6283 -3.531543,1.40294 -7.401727,1.40294 -1.451319,0 -3.04777,-0.29026 -1.548074,-0.29027 -2.902638,-1.01593 -1.354565,-0.67728 -2.225356,-1.83833 -0.822414,-1.20944 -0.822414,-2.95102 0,-1.25781 0.483773,-2.66075 0.483773,-1.40294 1.402942,-2.22536 0.145131,-0.14513 0.338641,-0.14513 0.09675,0 0.09675,0.0968 0,0.1935 -0.53215,0.77403 -0.483773,0.58053 -0.483773,1.64483 v 0.38702 q 0.387018,2.41886 1.838337,3.91856 1.451319,1.4997 3.531543,2.1286 2.080224,0.67728 4.30558,0.67728 1.354564,0 2.757506,-0.24188 1.402942,-0.24189 2.612374,-0.72566 2.128602,-0.87079 4.30558,-2.61238 2.176979,-1.74158 4.208825,-3.91856 2.080224,-2.22535 3.870184,-4.45071 1.78996,-2.27373 3.096147,-4.11207 l -1.741582,-1.35456 q -0.435396,1.0643 -0.919169,2.1286 -0.483773,1.0643 -0.967546,2.08022 -0.09676,0.14513 -0.387018,0.62891 -0.290264,0.48377 -0.532151,0.48377 -0.04838,0 -0.09675,-0.0968 0,-0.0967 0,-0.14513 0,-0.29026 0.04838,-0.53215 0.09676,-0.29026 0.145132,-0.53215 0.338641,-1.25781 0.580527,-2.564 0.241887,-1.30618 0.435396,-2.61237 -1.161055,-0.77404 -2.370488,-1.30619 -1.161055,-0.53215 -2.273733,-0.53215 -0.628905,0 -1.0643,0.24189 -0.387019,0.19351 -0.628905,0.19351 -0.435396,0 -0.435396,-0.38702 0,-0.33864 0.72566,-0.58053 0.725659,-0.24188 1.548073,-0.33864 0.822414,-0.14513 1.064301,-0.14513 0.967546,0 1.886715,0.24189 0.919168,0.19351 1.741582,0.58052 0.04838,-0.53215 0.04838,-1.0643 0.04838,-0.53215 0.04838,-1.01592 0,-0.4354 -0.04838,-1.0643 -0.04838,-0.67728 -0.290264,-1.16106 -0.193509,-0.53215 -0.72566,-0.53215 -0.53215,0 -0.677282,0.38702 -0.145132,0.33864 -0.387018,0.33864 -0.09675,0 -0.09675,-0.0968 0,-0.14513 0.09675,-0.33864 0.435395,-0.87079 1.209432,-1.69321 0.822414,-0.87079 1.886715,-0.87079 0.919169,0 1.306187,0.62891 0.435396,0.58052 0.53215,1.40294 0.145132,0.77403 0.145132,1.45132 0,1.20943 -0.241886,2.46724 -0.241887,1.20943 -0.628905,2.41886 0.580527,0.38702 1.112678,0.82242 0.580527,0.43539 1.112678,0.87079 2.709128,-3.82181 5.127993,-7.78875 2.467243,-3.96693 4.692599,-8.07901 -2.805884,-0.33864 -5.611767,-0.58052 -2.805884,-0.24189 -5.660144,-0.24189 -2.612375,0 -5.224749,0.33864 -2.563997,0.33864 -4.886107,1.35457 -2.273733,0.96754 -4.112071,3.04777 -1.78996,1.98347 -2.902638,4.8861 -1.112678,2.90264 -1.112678,5.61177 0,1.98347 0.628905,3.53154 0.677283,1.54808 2.370488,2.66075 0.290264,0.19351 0.290264,0.38702 0,0.24189 -0.290264,0.24189 h -0.145132 q -2.660751,-0.53215 -4.257202,-2.564 -1.548074,-2.08022 -1.548074,-4.74097 0,-0.24189 0,-0.4354 0,-0.24188 0.04838,-0.43539 0.145132,-1.01593 0.338642,-1.98347 0.241886,-1.01593 0.628904,-1.9351 1.306188,-3.14452 3.821807,-5.41825 2.51562,-2.27374 5.756899,-3.72506 3.241279,-1.45131 6.676067,-2.22535 3.434789,-0.77404 6.530936,-0.91917 0.290264,-0.0484 0.580527,-0.0484 0.290264,0 0.628905,0 2.805884,0 5.56339,0.33864 2.757506,0.29027 5.563389,0.29027 0.967546,0 1.354565,-0.29027 0.387018,-0.33864 0.53215,-0.33864 0.09676,0 0.09676,0.0968 0,0.14513 -0.09676,0.29026 -0.04838,0.14513 -0.145132,0.33864 -0.338641,0.67728 -0.483773,1.16106 -0.145132,0.48377 -0.919168,1.01592 -1.161056,1.69321 -2.225356,3.43479 -1.015924,1.74158 -2.128602,3.48316 -1.741582,2.80589 -3.57992,5.56339 -1.838337,2.75751 -3.821806,5.41826 l 0.822414,0.72566 q 3.04777,-3.28965 6.62769,-6.67607 3.628297,-3.43478 7.546859,-6.43418 3.966938,-3.04777 7.933877,-5.07961 1.451319,-0.77404 3.289656,-1.54808 1.886719,-0.77403 3.821809,-1.30618 1.98347,-0.53215 3.6283,-0.53215 1.11268,0 1.74158,0.6289 0.62891,0.62891 0.87079,1.59645 0.29027,0.91917 0.29027,1.88672 0,0.33864 -0.0968,0.87079 -0.0484,0.53215 -0.38702,0.53215 -0.38702,0 -0.38702,-0.38702 0,-0.33864 0.0968,-0.67728 0.0968,-0.38702 0.0968,-0.72566 0,-1.83834 -1.88671,-1.83834 h -0.14513 q -3.19291,0.0484 -6.772827,1.4997 -3.531543,1.40294 -7.159841,3.67667 -3.57992,2.27373 -6.966331,4.98286 -3.386411,2.70913 -6.289049,5.41826 -2.854261,2.66075 -4.982862,4.78935 4.595844,4.01532 9.046555,8.17577 4.450712,4.11207 9.530328,7.54686 0.628905,0.38701 1.596451,1.0643 1.015924,0.72566 2.080224,1.25781 1.064301,0.53215 1.78996,0.53215 0.967546,0 1.306187,-0.72566 0.387019,-0.67728 0.580528,-1.40294 0,-0.0968 0.09676,-0.0968 0.193507,0 0.338637,0.33864 0.14513,0.33864 0.14513,0.48378 v 0.0968 q -0.38702,1.59645 -1.402936,2.90264 -0.967546,1.30619 -2.805884,1.30619 z"
               style="font-family:'My Soul';-inkscape-font-specification:'My Soul'"
               id="path52662" />
          </g>
          <path
             id="path44625"
             style="fill:#483737;fill-opacity:1;fill-rule:evenodd;stroke:none;stroke-width:1.41245;stroke-miterlimit:4;stroke-dasharray:none;stroke-opacity:1"
             d="m 132.86455,247.69538 a 8.4802336,8.4802336 0 0 0 -0.2651,0.0129 8.4802336,8.4802336 0 0 0 -8.21552,8.46719 8.4802336,8.4802336 0 0 0 8.21552,8.4677 8.4802336,8.4802336 0 0 0 0.2651,0.0129 z" />
        </g>
        <g
           id="g52806">
          <path
             id="path44629"
             clip-path="none"
             style="fill:#483737;fill-opacity:1;fill-rule:evenodd;stroke:none;stroke-width:0.435301;stroke-miterlimit:4;stroke-dasharray:none;stroke-opacity:1"
             d="m 132.8643,216.32338 v 79.70503 h 79.78016 v 0.095 a 39.938174,39.900565 0 0 0 39.91989,-39.89986 39.938174,39.900565 0 0 0 -39.91989,-39.90017 z" />
          <g
             aria-label="M"
             id="text44633"
             clip-path="none"
             style="font-size:48.3773px;line-height:1.25;fill:#deaa87;stroke-width:1.20943"
             transform="translate(0,2.5881744e-5)">
            <path
               d="m 162.69625,278.16247 q -1.69321,0 -3.43479,-0.4354 -1.74158,-0.43539 -3.1929,-1.35456 -1.45132,-0.87079 -2.37049,-2.27373 -0.87079,-1.40295 -0.87079,-3.38642 0,-1.30618 0.48377,-2.90263 0.53215,-1.59645 1.54807,-2.46725 0.19351,-0.1935 0.38702,-0.1935 0.14513,0 0.14513,0.14513 0,0.19351 -0.58052,0.82241 -0.53215,0.62891 -0.53215,1.78996 v 0.4354 q 0.43539,2.80588 2.17697,4.59584 1.74159,1.78996 4.20883,2.61237 2.46724,0.82242 5.03124,0.82242 1.25781,0 2.61237,-0.19351 1.35457,-0.19351 2.51562,-0.67728 3.43479,-1.45132 6.77283,-4.45071 3.38641,-2.95102 6.53093,-6.86958 3.14453,-3.91856 5.90203,-8.17576 2.80588,-4.25721 5.128,-8.3209 2.37048,-4.06369 4.16044,-7.2566 -3.24128,-1.01592 -6.53093,-2.03184 -3.24128,-1.0643 -6.57932,-1.74158 -3.33803,-0.72566 -6.82119,-0.72566 -2.90264,0 -5.99879,0.77403 -3.09615,0.72566 -5.7569,2.27374 -2.61237,1.54807 -4.2572,4.01531 -1.59645,2.46724 -1.59645,5.90203 0,0.87079 0.0967,2.03185 0.14513,1.11268 0.48378,2.17698 0.38701,1.0643 1.11267,1.74158 0.72566,0.67728 1.9351,0.67728 0.0967,0 0.1935,0.0484 0.14514,0 0.14514,0.14513 0,0.14513 -0.29027,0.19351 -0.24188,0.0484 -0.33864,0.0484 -1.01592,0 -2.08022,-0.48377 -1.78996,-0.77404 -2.80589,-2.22536 -0.96754,-1.45132 -0.96754,-3.38641 0,-3.43479 1.54807,-5.99879 1.54808,-2.56399 4.11207,-4.40233 2.564,-1.83834 5.66015,-2.95102 3.09614,-1.16105 6.28905,-1.6932 3.1929,-0.53215 5.9504,-0.53215 4.59585,0 9.04656,1.16105 4.49909,1.11268 8.90142,2.32211 0.33864,-0.87079 1.30619,-0.96754 1.01592,-0.0968 1.78996,-0.0968 0.96755,0 1.25781,-0.38702 0.29026,-0.43539 0.6289,-0.43539 0.29027,0 0.29027,0.24189 0,0.0967 -0.38702,0.6289 -0.33864,0.53215 -0.77404,1.11268 -0.38702,0.53215 -0.53215,0.72566 h 0.0484 q 0.0484,0 0.0484,0.0484 0,0 0,0 0.58052,0.0968 1.16105,0.19351 0.58053,0.0968 1.16106,0.0968 0.67728,0 1.01592,-0.19351 0.38702,-0.19351 0.53215,-0.19351 0.14513,0 0.14513,0.14513 0,0.19351 -0.14513,0.33864 -0.0967,0.0968 -0.24189,0.19351 -1.16105,0.87079 -1.98346,1.35457 -0.77404,0.48377 -2.32212,0.58052 -0.67728,2.564 -1.30618,5.17638 -0.58053,2.61237 -1.16106,5.22474 -0.38702,1.88672 -0.72566,3.87019 -0.29026,1.93509 -0.29026,3.91856 0,0.6289 0.0967,1.59645 0.0968,0.91917 0.53215,1.64483 0.4354,0.67728 1.35457,0.67728 1.0643,0 2.51562,-1.01592 1.49969,-1.01593 3.09615,-2.46724 1.59645,-1.45132 2.90263,-2.85427 1.35457,-1.40294 2.1286,-2.17697 3.57992,-3.6283 6.96634,-7.45011 3.38641,-3.87018 6.3858,-7.98225 0.33864,-0.4354 0.96755,-1.35457 0.6289,-0.96754 1.35456,-1.74158 0.72566,-0.82241 1.25781,-0.82241 0.24189,0 0.87079,0.24188 0.67728,0.19351 1.25781,0.53215 0.58053,0.29027 0.62891,0.58053 0,0.0484 -0.0484,0.0968 0,0 0,0.0484 l -1.93509,2.17698 q -0.77404,0.91917 -1.4997,1.93509 -0.72566,0.96755 -1.45132,1.93509 -3.1929,4.54747 -5.80528,9.48196 -2.61237,4.93448 -4.74097,10.06247 -0.19351,0.48378 -0.48377,1.20944 -0.29027,0.72566 -0.29027,1.30618 0,0.62891 0.53215,0.62891 0.4354,0 0.96755,-0.33864 0.58053,-0.33864 0.91917,-0.58053 1.6932,-1.16106 3.38641,-2.22536 1.6932,-1.11267 3.57992,-1.83833 0.0484,0 0.43539,-0.14514 0.38702,-0.14513 0.4354,-0.14513 0.14513,0 0.19351,0.14513 0.0968,0.14514 0.0968,0.24189 -1.20943,0.53215 -2.80588,1.54807 -1.59645,0.96755 -3.24128,2.17698 -1.59645,1.16106 -2.99939,2.41887 -1.35457,1.20943 -2.1286,2.27373 -0.19351,0.33864 -0.38702,0.67728 -0.14513,0.29027 -0.33864,0.67729 -0.33864,0.6289 -0.91917,0.77403 -0.53215,0.19351 -1.20943,0.19351 -0.19351,0 -0.91917,-0.0967 -0.67728,-0.0968 -1.30619,-0.29027 -0.6289,-0.14513 -0.6289,-0.43539 0,-0.24189 0.14513,-0.77404 0.14513,-0.53215 0.29026,-1.0643 0.19351,-0.53215 0.24189,-0.72566 0.96754,-2.70913 2.41886,-5.41826 1.45132,-2.70913 3.14453,-5.3215 1.6932,-2.61237 3.24128,-4.98286 0.6289,-0.96755 1.25781,-1.88672 0.67728,-0.96754 1.25781,-1.93509 0.43539,-0.67728 0.43539,-1.30619 0,-0.0967 -0.0484,-0.1935 0,-0.14514 -0.0968,-0.14514 -0.19351,0 -0.33864,0.24189 -0.96755,1.11268 -2.66075,2.99939 -1.69321,1.88672 -3.77343,4.11207 -2.08023,2.17698 -4.35396,4.40234 -2.22535,2.17698 -4.45071,4.01531 -2.17698,1.83834 -4.06369,2.95102 -1.88672,1.11268 -3.24128,1.11268 -1.20943,0 -1.78996,-0.82242 -0.58053,-0.82241 -0.77404,-1.93509 -0.14513,-1.16106 -0.14513,-2.08022 0,-2.37049 0.48377,-5.22475 0.48377,-2.85426 1.16106,-5.70852 0.72566,-2.90264 1.30618,-5.22475 -2.08022,3.28965 -4.40233,6.96633 -2.32211,3.6283 -4.93448,7.25659 -2.61238,3.6283 -5.61177,6.91796 -2.95102,3.24128 -6.38581,5.7569 -3.38641,2.56399 -7.30497,4.01531 -3.87018,1.4997 -8.32089,1.4997 z m 22.20518,-16.88368 q -0.0968,0 -0.14513,-0.0968 0,-0.0968 0,-0.14514 0,-0.29026 0.0484,-0.53215 0.0968,-0.29026 0.14513,-0.53215 0.58053,-2.17697 0.96755,-4.49908 0.38702,-2.37049 0.38702,-4.59585 0,-0.38702 -0.0484,-1.0643 -0.0484,-0.67728 -0.29026,-1.25781 -0.19351,-0.58053 -0.77404,-0.58053 -0.48377,0 -0.6289,0.38702 -0.14514,0.33864 -0.38702,0.33864 -0.14513,0 -0.14513,-0.14513 0,-0.0968 0.0967,-0.29026 0.4354,-0.91917 1.25781,-1.74159 0.82241,-0.82241 1.88672,-0.82241 0.87079,0 1.25781,0.58053 0.43539,0.58053 0.53215,1.40294 0.14513,0.77404 0.14513,1.45132 0,2.80588 -1.11268,5.66014 -1.11268,2.85426 -2.32211,5.36988 -0.0484,0.19351 -0.38702,0.67729 -0.29026,0.43539 -0.48377,0.43539 z"
               style="font-family:'My Soul';-inkscape-font-specification:'My Soul'"
               id="path52683" />
          </g>
          <path
             id="path44635"
             style="fill:#deaa87;fill-opacity:1;fill-rule:evenodd;stroke:none;stroke-width:1.41245;stroke-miterlimit:4;stroke-dasharray:none;stroke-opacity:1"
             d="m 132.86455,247.69538 v 16.96073 a 8.4802336,8.4802336 0 0 0 8.4801,-8.48062 8.4802336,8.4802336 0 0 0 -8.4801,-8.48011 z" />
        </g>
      </g>
    </g>
  </g>
</svg>
