<?xml version="1.0" standalone="no"?>
<!DOCTYPE svg PUBLIC "-//W3C//DTD SVG 20010904//EN"
 "http://www.w3.org/TR/2001/REC-SVG-20010904/DTD/svg10.dtd">
<svg version="1.0" xmlns="http://www.w3.org/2000/svg"
 width="2860.000000pt" height="2860.000000pt" viewBox="0 0 2860.000000 2860.000000"
 preserveAspectRatio="xMidYMid meet">
<metadata>
Created by potrace 1.14, written by Peter Selinger 2001-2017
</metadata>
<g transform="translate(0.000000,2860.000000) scale(0.100000,-0.100000)"
fill="#000000" stroke="none">
<path d="M14139 19213 c-1 -5 -5 -838 -8 -1853 l-6 -1845 -80 -7 c-404 -33
-765 -334 -874 -727 -97 -350 4 -725 262 -980 93 -91 168 -144 283 -198 107
-51 220 -82 332 -90 l82 -6 0 -1853 0 -1854 -4737 0 c-2889 0 -4805 4 -4910
10 -256 14 -535 49 -728 91 -432 94 -776 214 -1155 404 -469 234 -832 497
-1216 879 -213 212 -218 208 -29 -29 421 -528 942 -953 1545 -1259 584 -297
1186 -462 1845 -505 110 -8 3127 -11 9651 -11 5221 0 9494 -3 9496 -8 5 -11
355 4 518 23 919 106 1780 474 2490 1063 148 123 393 363 533 522 701 797
1116 1839 1155 2897 41 1117 -285 2159 -954 3043 -60 80 -154 207 -208 284
-483 680 -1087 1193 -1821 1547 -494 237 -978 375 -1570 445 -142 17 -409 19
-5022 21 -2680 2 -4874 0 -4874 -4z m6426 -2152 c83 -11 200 -30 260 -41 115
-22 893 -217 1170 -293 143 -40 161 -43 170 -28 25 40 75 80 111 90 21 6 102
13 179 17 154 7 193 18 231 64 18 20 35 30 54 30 59 0 52 -16 -81 -201 -43
-60 -74 -111 -69 -114 22 -14 182 -35 262 -35 64 0 101 5 138 20 63 25 70 25
70 0 0 -23 -66 -78 -200 -165 -116 -75 -154 -91 -264 -107 l-86 -12 -10 -36
c-153 -582 -332 -1401 -376 -1720 -21 -152 -29 -446 -15 -558 22 -180 86 -283
184 -297 108 -16 224 31 409 165 197 144 363 298 751 694 462 473 536 551 768
806 397 436 713 828 1043 1289 181 253 258 331 329 331 40 0 194 -56 257 -93
36 -22 56 -40 58 -55 3 -16 -29 -59 -124 -165 -246 -276 -609 -783 -856 -1197
-312 -522 -621 -1145 -858 -1730 -51 -125 -64 -169 -68 -226 -4 -66 -3 -72 19
-88 53 -37 97 -18 349 151 378 252 550 350 735 419 94 35 124 41 127 24 0 -5
1 -14 2 -19 1 -5 -43 -31 -96 -60 -333 -174 -779 -494 -1031 -740 -127 -123
-182 -194 -243 -310 -55 -106 -75 -125 -153 -147 -106 -31 -394 5 -445 55 -18
18 -18 22 14 142 57 223 196 557 352 844 164 303 337 579 819 1311 120 181
230 355 243 385 38 80 33 166 -7 142 -8 -4 -87 -91 -177 -193 -452 -513 -1138
-1222 -1435 -1481 -540 -473 -842 -659 -1067 -659 -39 0 -89 5 -111 12 -86 26
-160 136 -194 289 -23 105 -23 435 1 628 38 315 109 670 236 1181 49 195 87
356 86 358 -2 1 -126 -192 -276 -430 -938 -1487 -1496 -2174 -2190 -2700 -303
-229 -562 -376 -882 -502 -480 -188 -1040 -239 -1444 -132 -333 89 -606 305
-689 543 -76 217 -51 513 62 737 49 96 156 208 183 191 13 -8 -3 -39 -43 -85
-44 -50 -74 -125 -81 -202 -11 -120 45 -319 134 -471 58 -98 228 -264 343
-336 313 -193 754 -270 1178 -206 148 22 262 60 424 140 350 172 678 433 1094
870 480 503 1054 1319 1649 2340 322 554 500 870 494 877 -14 13 -1013 319
-1202 367 -777 200 -1310 217 -1905 62 -454 -119 -799 -318 -1030 -594 -241
-289 -326 -601 -285 -1039 21 -215 81 -384 170 -478 59 -62 113 -88 207 -100
42 -6 79 -13 82 -16 14 -13 -37 -34 -84 -34 -97 0 -251 54 -361 125 -78 52
-183 158 -221 226 -18 29 -44 90 -59 134 -27 76 -28 89 -28 255 0 189 13 282
60 427 77 238 254 491 471 673 459 385 1130 627 1953 704 25 2 185 2 355 1
243 -3 342 -8 460 -24z m112 -1347 c89 -66 131 -293 103 -549 -24 -217 -86
-420 -228 -750 -165 -386 -228 -505 -268 -505 -23 0 -17 49 25 218 48 191 94
425 117 592 26 183 26 573 1 654 -23 75 -54 106 -105 106 -42 0 -60 -11 -85
-52 -10 -16 -24 -28 -32 -28 -57 0 85 218 188 288 63 43 94 52 179 49 60 -2
83 -7 105 -23z m-6401 -215 c323 -45 610 -252 754 -544 194 -393 118 -846
-192 -1154 -164 -163 -384 -264 -620 -286 l-78 -7 0 1001 0 1001 29 0 c16 0
65 -5 107 -11z"/>
<path d="M6865 17093 c-344 -29 -594 -68 -856 -134 -1080 -271 -1751 -834
-1916 -1605 -24 -112 -27 -151 -27 -294 0 -150 3 -173 27 -253 85 -279 273
-479 532 -569 124 -42 186 -39 171 9 -3 11 -35 40 -70 66 -86 63 -174 160
-213 233 -78 147 -114 374 -94 592 54 585 364 1128 795 1392 160 97 429 191
659 229 351 59 908 65 1435 16 223 -21 555 -56 569 -60 23 -7 -304 -577 -625
-1090 -112 -178 -453 -692 -501 -754 l-18 -23 -114 87 c-63 49 -120 93 -127
100 -11 10 -8 33 17 126 59 222 80 408 62 555 -28 227 -92 314 -233 314 -96 0
-170 -40 -253 -137 -77 -90 -136 -196 -118 -214 11 -11 28 2 71 55 17 21 59
31 90 20 70 -25 95 -124 90 -364 -2 -98 -5 -181 -8 -184 -3 -3 -36 6 -73 19
-88 32 -251 65 -321 65 -31 0 -100 -7 -154 -15 -212 -34 -287 -72 -267 -134
10 -31 48 -33 121 -6 79 30 184 33 277 9 75 -19 228 -90 324 -150 65 -41 72
-48 68 -72 -3 -15 -14 -82 -25 -150 -27 -161 -55 -295 -85 -410 -23 -86 -33
-182 -19 -182 19 0 48 28 79 75 34 54 181 366 231 491 l26 64 99 -77 c54 -42
99 -79 99 -82 0 -10 -311 -422 -407 -539 -583 -711 -1073 -1126 -1497 -1267
-418 -140 -960 -100 -1289 96 -108 64 -252 213 -304 314 -60 115 -93 238 -93
340 0 99 15 147 69 215 38 48 53 90 32 90 -11 0 -60 -39 -93 -75 -46 -49 -116
-202 -144 -310 -19 -77 -25 -126 -25 -211 0 -200 41 -305 171 -434 68 -68 104
-95 185 -137 121 -62 246 -105 380 -130 143 -26 534 -26 690 0 457 77 944 297
1370 621 377 286 833 746 1177 1186 l28 35 36 -36 36 -37 -154 -173 c-334
-378 -789 -919 -858 -1022 -33 -48 -38 -62 -29 -78 14 -28 54 -44 78 -33 11 5
74 78 141 163 221 279 525 633 798 928 l122 133 203 -194 c221 -211 553 -547
855 -863 107 -111 282 -285 390 -386 737 -692 1109 -936 1392 -914 119 9 183
38 260 116 74 75 119 146 167 264 38 94 41 148 13 195 -27 43 -44 40 -59 -10
-7 -24 -29 -74 -49 -112 -31 -59 -42 -72 -81 -89 -79 -35 -197 -9 -350 75 -83
47 -477 312 -653 440 -304 221 -620 483 -947 787 -249 232 -466 428 -716 650
-132 118 -241 217 -243 221 -3 8 381 382 618 600 729 672 1470 1206 2075 1495
422 202 726 291 1035 301 148 5 157 5 200 -18 83 -43 111 -131 87 -274 -17
-98 -10 -124 32 -124 48 0 56 26 55 180 0 117 -4 145 -26 212 -64 192 -150
258 -337 258 -388 0 -1032 -246 -1646 -627 -577 -359 -1296 -968 -1968 -1668
-126 -132 -234 -241 -238 -243 -5 -2 -27 14 -50 36 l-42 39 160 224 c267 374
605 893 903 1384 202 333 311 495 359 533 23 19 51 53 61 75 79 173 101 230
91 240 -8 8 -19 4 -38 -11 -44 -35 -85 -51 -154 -58 -85 -8 -486 12 -724 36
-310 32 -632 46 -780 33z"/>
</g>
</svg>
