<?xml version="1.0" standalone="no"?>
<!DOCTYPE svg PUBLIC "-//W3C//DTD SVG 20010904//EN"
 "http://www.w3.org/TR/2001/REC-SVG-20010904/DTD/svg10.dtd">
<svg version="1.0" xmlns="http://www.w3.org/2000/svg"
 width="190.000000pt" height="190.000000pt" viewBox="0 0 190.000000 190.000000"
 preserveAspectRatio="xMidYMid meet">
<metadata>
Created by potrace 1.14, written by Peter Selinger 2001-2017
</metadata>
<g transform="translate(0.000000,190.000000) scale(0.100000,-0.100000)"
fill="#000000" stroke="none">
<path d="M0 950 l0 -950 950 0 950 0 0 950 0 950 -950 0 -950 0 0 -950z m1620
264 c0 -4 -17 -35 -39 -68 -105 -167 -166 -325 -159 -412 4 -48 2 -54 -14 -54
-52 0 -44 96 22 245 22 49 40 90 40 92 0 2 -36 -37 -80 -86 -93 -104 -160
-145 -188 -117 -18 18 -22 102 -9 186 7 43 5 41 -41 -46 -27 -50 -63 -111 -80
-136 -40 -58 -129 -138 -153 -138 -36 0 -128 41 -216 97 -48 30 -94 56 -100
56 -7 0 -13 7 -13 15 0 8 -30 -18 -66 -57 -75 -81 -107 -101 -159 -101 -53 0
-85 36 -85 94 0 25 4 47 8 50 4 2 8 -10 8 -28 0 -49 23 -95 50 -102 54 -14
103 17 170 108 l43 59 -68 68 c-81 80 -102 127 -76 167 29 44 77 57 227 62
l138 4 -91 -143 -90 -144 33 -28 c71 -62 223 -155 234 -144 2 2 0 26 -5 53
-10 58 0 149 19 167 10 10 12 8 6 -8 -32 -90 -10 -205 39 -205 41 0 138 121
240 301 49 84 64 104 71 91 7 -10 6 -36 -3 -76 -18 -85 -17 -185 1 -192 24 -9
68 21 147 103 85 88 150 173 169 221 13 32 34 51 58 52 6 0 12 -3 12 -6z
m-410 -51 c80 -5 98 -8 80 -15 -14 -6 -66 -7 -117 -3 -93 6 -93 6 -119 -22
-20 -22 -23 -23 -15 -6 15 30 14 33 -12 33 -65 0 -76 -63 -17 -92 19 -10 28
-18 20 -18 -21 1 -100 37 -100 47 0 4 -4 14 -9 22 -12 19 -82 -33 -212 -156
-51 -48 -87 -79 -81 -68 6 12 60 68 120 126 140 136 208 174 297 165 33 -4
107 -9 165 -13z m-212 -199 c30 -21 29 -59 -3 -80 -23 -15 -27 -15 -50 0 -32
21 -33 59 -3 80 12 9 25 16 28 16 3 0 16 -7 28 -16z"/>
<path d="M521 1139 c-108 -21 -107 -80 2 -187 l54 -53 68 118 c38 65 70 121
72 126 6 10 -141 7 -196 -4z"/>
</g>
</svg>
